<svg width="30" height="30" viewBox="0 0 30 30" fill="none" xmlns="http://www.w3.org/2000/svg">
<path d="M25 15C25 20.5228 20.5228 25 15 25C9.47715 25 5 20.5228 5 15C5 9.47715 9.47715 5 15 5C20.5228 5 25 9.47715 25 15Z" fill="#26A69A"/>
<path fill-rule="evenodd" clip-rule="evenodd" d="M15 23C19.4183 23 23 19.4183 23 15C23 10.5817 19.4183 7 15 7C10.5817 7 7 10.5817 7 15C7 19.4183 10.5817 23 15 23ZM15 25C20.5228 25 25 20.5228 25 15C25 9.47715 20.5228 5 15 5C9.47715 5 5 9.47715 5 15C5 20.5228 9.47715 25 15 25Z" fill="#333333"/>
<path d="M14 10H16V17H14V10Z" fill="#333333"/>
<path d="M16 19C16 19.5523 15.5523 20 15 20C14.4477 20 14 19.5523 14 19C14 18.4477 14.4477 18 15 18C15.5523 18 16 18.4477 16 19Z" fill="#333333"/>
</svg>
