<svg width="30" height="30" viewBox="0 0 30 30" fill="none" xmlns="http://www.w3.org/2000/svg">
<circle cx="15" cy="15" r="10" fill="#26A69A"/>
<path fill-rule="evenodd" clip-rule="evenodd" d="M15 15C16.1046 15 17 14.1046 17 13C17 11.8954 16.1046 11 15 11C13.8954 11 13 11.8954 13 13C13 14.1046 13.8954 15 15 15ZM15 17C17.2091 17 19 15.2091 19 13C19 10.7909 17.2091 9 15 9C12.7909 9 11 10.7909 11 13C11 15.2091 12.7909 17 15 17Z" fill="#333333"/>
<path fill-rule="evenodd" clip-rule="evenodd" d="M15 22.5C19.1421 22.5 22.5 19.1421 22.5 15C22.5 10.8579 19.1421 7.5 15 7.5C10.8579 7.5 7.5 10.8579 7.5 15C7.5 19.1421 10.8579 22.5 15 22.5ZM15 25C20.5228 25 25 20.5228 25 15C25 9.47715 20.5228 5 15 5C9.47715 5 5 9.47715 5 15C5 20.5228 9.47715 25 15 25Z" fill="#333333"/>
<path fill-rule="evenodd" clip-rule="evenodd" d="M8.19971 22.3321C8.94785 19.2714 11.7086 17 14.9998 17C18.291 17 21.0517 19.2714 21.7998 22.3321C21.2501 22.8422 20.6429 23.2913 19.989 23.6684C19.8183 21.0616 17.6498 19 14.9998 19C12.3498 19 10.1813 21.0616 10.0106 23.6684C9.3567 23.2913 8.74947 22.8422 8.19971 22.3321Z" fill="#333333"/>
</svg>
