<svg width="30" height="30" viewBox="0 0 30 30" fill="none" xmlns="http://www.w3.org/2000/svg">
<path d="M6 9C6 7.34315 7.34315 6 9 6H21C22.6569 6 24 7.34315 24 9V21C24 22.6569 22.6569 24 21 24H9C7.34315 24 6 22.6569 6 21V9Z" fill="#26A69A"/>
<path fill-rule="evenodd" clip-rule="evenodd" d="M21 8H9C8.44772 8 8 8.44772 8 9V21C8 21.5523 8.44772 22 9 22H21C21.5523 22 22 21.5523 22 21V9C22 8.44772 21.5523 8 21 8ZM9 6C7.34315 6 6 7.34315 6 9V21C6 22.6569 7.34315 24 9 24H21C22.6569 24 24 22.6569 24 21V9C24 7.34315 22.6569 6 21 6H9Z" fill="#333333"/>
<path fill-rule="evenodd" clip-rule="evenodd" d="M14.2428 10.7071C14.6333 10.3166 15.2665 10.3166 15.657 10.7071C16.0475 11.0976 16.0475 11.7308 15.657 12.1213L13.7783 14H22.0001C22.5523 14 23.0001 14.4477 23.0001 15C23.0001 15.5523 22.5523 16 22.0001 16H13.8788L15.657 17.7781C16.0475 18.1686 16.0475 18.8018 15.657 19.1923C15.2664 19.5828 14.6333 19.5828 14.2427 19.1923L10.7114 15.661C10.71 15.6596 10.7086 15.6582 10.7072 15.6568L10.7072 15.6568C10.6584 15.608 10.6157 15.5554 10.5791 15.5C10.6157 15.5554 10.6584 15.608 10.7072 15.6568M14.2428 10.7071L10.7149 14.2349L14.2428 10.7071Z" fill="#333333"/>
</svg>
