<svg width="30" height="30" viewBox="0 0 30 30" fill="none" xmlns="http://www.w3.org/2000/svg">
<path d="M6 19.4338V6H24V19.4338L15 24.8338L6 19.4338Z" fill="#26A69A" stroke="#333333" stroke-width="2"/>
<path d="M12 15C12 14.4477 12.4477 14 13 14H17C17.5523 14 18 14.4477 18 15C18 15.5523 17.5523 16 17 16H13C12.4477 16 12 15.5523 12 15Z" fill="#333333"/>
<path fill-rule="evenodd" clip-rule="evenodd" d="M10.7071 11.1213C10.3166 10.7308 10.3166 10.0976 10.7071 9.70708C11.0976 9.31655 11.7308 9.31655 12.1213 9.70708L15.0013 12.5871L17.8814 9.70711C18.2719 9.31658 18.9051 9.31658 19.2956 9.70711C19.6861 10.0976 19.6861 10.7308 19.2956 11.1213L16.1213 14.2956C16.042 14.3749 15.9527 14.4381 15.8574 14.4852C15.9479 14.6356 16 14.8117 16 15V17H17C17.5523 17 18 17.4477 18 18C18 18.5523 17.5523 19 17 19H16V20C16 20.5523 15.5523 21 15 21C14.4477 21 14 20.5523 14 20V19H13C12.4477 19 12 18.5523 12 18C12 17.4477 12.4477 17 13 17H14V15C14 14.8113 14.0523 14.6347 14.1431 14.4841C14.0487 14.4371 13.9601 14.3743 13.8813 14.2955L10.7071 11.1213Z" fill="#333333"/>
</svg>
