<svg width="23" height="23" viewBox="0 0 23 23" fill="none" xmlns="http://www.w3.org/2000/svg">
<path d="M4.20203 9.8192H12.3538L15.9338 6.23938L15.9675 6.20573V5.61726H4.20203V9.8192Z" fill="#5E81F4"/>
<path d="M18.0682 19.4837H2.101V3.51632H18.0682V4.10889L20.1692 2.54134V1.41533H0V21.5847H20.1692V12.9916L18.0682 15.0926V19.4837Z" fill="#5E81F4"/>
<path d="M10.3033 12.3405H4.20203V13.6011H9.61403C9.82009 13.1558 10.0595 12.727 10.3033 12.3405Z" fill="#5E81F4"/>
<path d="M4.20203 15.702V16.9625H9.18543C9.03831 16.5674 8.99218 16.1389 9.02151 15.702H4.20203Z" fill="#5E81F4"/>
<path d="M13.0695 12.0746C12.3732 12.7709 10.5713 15.7024 11.2677 16.3992C11.9644 17.0959 14.8956 15.2937 15.5923 14.5974L18.4563 11.7327L15.9337 9.21034L13.0695 12.0746Z" fill="#5E81F4"/>
<path d="M22.4778 5.18891C21.781 4.49253 20.6518 4.49253 19.9554 5.18891L16.5107 8.63374L19.0334 11.1561L22.4778 7.71127C23.1741 7.01494 23.1741 5.88565 22.4778 5.18891ZM17.9763 9.09047L17.5434 8.65796L19.955 6.24637L20.3871 6.67843L17.9763 9.09047Z" fill="#5E81F4"/>
</svg>
