<svg width="60" height="60" viewBox="0 0 60 60" fill="none" xmlns="http://www.w3.org/2000/svg">
<defs>
<linearGradient id="paint0_linear" x1="30" y1="62.5" x2="30" y2="-6" gradientUnits="userSpaceOnUse">
<stop/>
<stop offset="1" stop-color="#696969" stop-opacity="0.7"/>
</linearGradient>
<linearGradient id="paint1_linear" x1="29.5335" y1="27.6935" x2="38.7745" y2="42.7043" gradientUnits="userSpaceOnUse">
<stop stop-color="#424242"/>
<stop offset="1" stop-opacity="0.76"/>
</linearGradient>
</defs>
<path d="M60 30C60 46.5685 46.5685 60 30 60C13.4315 60 0 46.5685 0 30C0 13.4315 13.4315 0 30 0C46.5685 0 60 13.4315 60 30Z" fill="#F2F2F2"/>
<path d="M60 30C60 46.5685 46.5685 60 30 60C13.4315 60 0 46.5685 0 30C0 13.4315 13.4315 0 30 0C46.5685 0 60 13.4315 60 30Z" fill="white"/>
<path fill-rule="evenodd" clip-rule="evenodd" d="M30 57C44.9117 57 57 44.9117 57 30C57 15.0883 44.9117 3 30 3C15.0883 3 3 15.0883 3 30C3 44.9117 15.0883 57 30 57ZM30 60C46.5685 60 60 46.5685 60 30C60 13.4315 46.5685 0 30 0C13.4315 0 0 13.4315 0 30C0 46.5685 13.4315 60 30 60Z" fill="url(#paint0_linear)"/>
<path d="M30.2309 17.6878C30.3283 17.4442 30.6717 17.4442 30.7691 17.6878L33.6817 24.9731C33.7232 25.0768 33.8201 25.1475 33.9311 25.1551L41.7292 25.6862C41.99 25.704 42.0961 26.0319 41.8955 26.2003L35.8975 31.2339C35.8121 31.3055 35.7751 31.42 35.8022 31.5284L37.7091 39.1419C37.7729 39.3965 37.4951 39.5992 37.2738 39.4596L30.6542 35.2853C30.5599 35.2259 30.4401 35.2259 30.3458 35.2853L23.7262 39.4596C23.5049 39.5992 23.2271 39.3965 23.2909 39.1419L25.1978 31.5284C25.2249 31.42 25.1879 31.3055 25.1025 31.2339L19.1045 26.2003C18.9039 26.0319 19.01 25.704 19.2708 25.6862L27.0689 25.1551C27.1799 25.1475 27.2768 25.0768 27.3183 24.9731L30.2309 17.6878Z" fill="url(#paint1_linear)"/>
</svg>