<svg width="60" height="60" viewBox="0 0 60 60" fill="none" xmlns="http://www.w3.org/2000/svg">
<defs>
<linearGradient id="paint0_linear" x1="30" y1="-7" x2="30" y2="72" gradientUnits="userSpaceOnUse">
<stop stop-color="#DB8B2E"/>
<stop offset="1" stop-color="#E89416" stop-opacity="0.5"/>
</linearGradient>
</defs>
<path fill-rule="evenodd" clip-rule="evenodd" d="M30 57C44.9117 57 57 44.9117 57 30C57 15.0883 44.9117 3 30 3C15.0883 3 3 15.0883 3 30C3 44.9117 15.0883 57 30 57ZM30 60C46.5685 60 60 46.5685 60 30C60 13.4315 46.5685 0 30 0C13.4315 0 0 13.4315 0 30C0 46.5685 13.4315 60 30 60Z" fill="#F2F2F2"/>
<path fill-rule="evenodd" clip-rule="evenodd" d="M30 57C44.9117 57 57 44.9117 57 30C57 15.0883 44.9117 3 30 3C15.0883 3 3 15.0883 3 30C3 44.9117 15.0883 57 30 57ZM30 60C46.5685 60 60 46.5685 60 30C60 13.4315 46.5685 0 30 0C13.4315 0 0 13.4315 0 30C0 46.5685 13.4315 60 30 60Z" fill="white"/>
<path fill-rule="evenodd" clip-rule="evenodd" d="M30 57C44.9117 57 57 44.9117 57 30C57 15.0883 44.9117 3 30 3C15.0883 3 3 15.0883 3 30C3 44.9117 15.0883 57 30 57ZM30 60C46.5685 60 60 46.5685 60 30C60 13.4315 46.5685 0 30 0C13.4315 0 0 13.4315 0 30C0 46.5685 13.4315 60 30 60Z" fill="black"/>
<path fill-rule="evenodd" clip-rule="evenodd" d="M30 57C44.9117 57 57 44.9117 57 30C57 15.0883 44.9117 3 30 3C15.0883 3 3 15.0883 3 30C3 44.9117 15.0883 57 30 57ZM30 60C46.5685 60 60 46.5685 60 30C60 13.4315 46.5685 0 30 0C13.4315 0 0 13.4315 0 30C0 46.5685 13.4315 60 30 60Z" fill="url(#paint0_linear)"/>
<path d="M35.2286 41.7815C33.8983 42.5516 32.4076 42.9694 30.887 42.9984C29.3663 43.0274 27.862 42.6667 26.5057 41.9479C24.9786 41.1711 23.7272 39.9077 22.9322 38.3399C22.1372 36.7722 21.8395 34.9812 22.0823 33.2254C22.3189 30.9099 23.2474 28.731 24.7363 26.9976C27.2713 24.3436 28.6964 20.7488 28.6997 17C30.6665 18.134 32.2934 19.8158 33.3992 21.8582C34.5051 23.9007 35.0465 26.2236 34.9632 28.5684C35.4275 28.2484 35.824 27.8325 36.1284 27.3462C36.4327 26.8599 36.6383 26.3136 36.7326 25.741C39.3512 30.786 40.6605 38.5845 35.2286 41.7815Z" fill="#CF5028"/>
<path d="M30.0638 41C28.3092 41 23.8728 39.1466 27.2108 31.8818C27.2108 33.5366 27.9954 35.1087 28.7942 35.1915C28.5802 32.792 28.7942 28.5721 31.262 27C31.69 30.5414 33.3733 32.1466 34.2577 33.6194C35.513 35.9196 35.7841 41 30.0638 41Z" fill="#FEEBA9"/>

</svg>
