<svg width="156" height="92" viewBox="0 0 156 92" fill="none" xmlns="http://www.w3.org/2000/svg">
<path fill-rule="evenodd" clip-rule="evenodd" d="M100.097 0.278442C104.779 0.278442 109.144 2.64322 111.702 6.56509L153.268 70.3C157.448 76.7095 155.641 85.2941 149.232 89.4742C142.822 93.6544 134.238 91.8471 130.057 85.4376L100.097 39.4976L70.1358 85.4376C65.9557 91.8471 57.3711 93.6544 50.9616 89.4742C44.5521 85.2941 42.7448 76.7095 46.9249 70.3L88.4912 6.56509C91.0489 2.64322 95.4144 0.278442 100.097 0.278442Z" fill="#333333"/>
<path d="M100.096 88.9531C107.748 88.9531 113.952 82.7498 113.952 75.0976C113.952 67.4455 107.748 61.2422 100.096 61.2422C92.444 61.2422 86.2407 67.4455 86.2407 75.0976C86.2407 82.7498 92.444 88.9531 100.096 88.9531Z" fill="#26A69A"/>
<path fill-rule="evenodd" clip-rule="evenodd" d="M14.1923 0.278442C21.8445 0.278441 28.0478 6.48172 28.0478 14.1339L28.0478 77.8688C28.0478 85.5209 21.8445 91.7242 14.1923 91.7242C6.5402 91.7242 0.336918 85.5209 0.336917 77.8688L0.336915 14.1339C0.336914 6.48173 6.5402 0.278442 14.1923 0.278442Z" fill="#333333"/>
<path fill-rule="evenodd" clip-rule="evenodd" d="M6.28025 2.75976C12.5619 -1.61011 21.1967 -0.0602739 25.5666 6.22141L69.9039 69.9563C74.2738 76.238 72.724 84.8728 66.4423 89.2427C60.1606 93.6125 51.5258 92.0627 47.156 85.781L2.8186 22.0461C-1.55127 15.7644 -0.00143483 7.12962 6.28025 2.75976Z" fill="#26A69A"/>
</svg>
