<?xml version="1.0" encoding="iso-8859-1"?>
<!-- Generator: Adobe Illustrator 26.5.0, SVG Export Plug-In . SVG Version: 6.00 Build 0)  -->
<svg version="1.1" xmlns="http://www.w3.org/2000/svg" xmlns:xlink="http://www.w3.org/1999/xlink" x="0px" y="0px"
	 viewBox="0 0 100 100" style="enable-background:new 0 0 100 100;" xml:space="preserve">
<g id="base">
	<path style="fill:#2A9E93;" d="M18.381,74.394c-2.709,4.715-8.729,6.34-13.443,3.63c-4.715-2.711-6.34-8.731-3.63-13.445
		l11.879-20.645c1.696,2.928,4.16,5.462,7.303,7.269c3.067,1.762,6.406,2.619,9.708,2.651L18.381,74.394z"/>
	<path style="fill-rule:evenodd;clip-rule:evenodd;fill:#2A9E93;" d="M18.934,32.519c3.027-5.266,9.75-7.081,15.016-4.053
		c5.265,3.028,7.081,9.751,4.053,15.017c-3.028,5.265-9.751,7.08-15.016,4.053C17.722,44.507,15.907,37.784,18.934,32.519z"/>
	<path style="fill:#403F41;" d="M66.507,50.468l-8.549,14.871c-0.735,1.701-1.958,3.212-3.622,4.306
		c-1.587,1.044-3.366,1.57-5.136,1.617c-1.779,0.063-3.598-0.353-5.255-1.305c-1.727-0.993-3.038-2.429-3.874-4.082l-7.953-12.092
		l0.016-0.002c0.164-0.015,0.327-0.031,0.49-0.049l0.032-0.003l0.259-0.031l0.265-0.036l0.259-0.037l0.022-0.003
		c0.164-0.026,0.328-0.053,0.491-0.084l0.033-0.005c0.147-0.027,0.293-0.056,0.438-0.085l0.12-0.026l0.211-0.044l0.259-0.06
		l0.003-0.002l0.257-0.063l0.258-0.065c0.238-0.063,0.474-0.131,0.71-0.203l0.117-0.037c0.235-0.073,0.469-0.15,0.701-0.232
		l0.251-0.09l0.235-0.087l0.015-0.007l0.248-0.097l0.232-0.094l0.04-0.017c0.145-0.06,0.29-0.123,0.434-0.186l0.072-0.032
		c0.131-0.058,0.26-0.118,0.389-0.179l0.07-0.034l0.226-0.109l0.239-0.121l0.216-0.111l0.022-0.012l0.236-0.126l0.007-0.003
		l0.171-0.096l0.125-0.07l0.329-0.192l0.119-0.071l0.284-0.176l0.18-0.113l0.142-0.092l0.024-0.015l0.224-0.149l0.021-0.014
		l0.146-0.101l0.199-0.139l0.228-0.164l0.188-0.139l0.242-0.184l0.11-0.085l0.197-0.156l0.233-0.19l0.131-0.11l0.267-0.229
		l0.106-0.093l0.272-0.247l0.111-0.103l0.212-0.201l0.067-0.064l0.005-0.005l0.057-0.057l0.209-0.208l0.115-0.118l0.006-0.006
		l0.19-0.199l0.032-0.034l0.125-0.132l0.235-0.261l0.103-0.117l0.246-0.286l0.08-0.096l0.212-0.259l0.047-0.057l0.01-0.013
		l0.01-0.013c0.084-0.107,0.168-0.215,0.251-0.323l0.06-0.078c0.078-0.104,0.156-0.209,0.232-0.315l0.084-0.117l0.037-0.051
		l0.005-0.009c0.362-0.511,0.704-1.043,1.023-1.598c0.318-0.554,0.606-1.117,0.866-1.686l4.908-8.539l3.33-5.792
		c0.718-1.819,1.984-3.443,3.743-4.599c1.593-1.047,3.378-1.572,5.154-1.616c1.79-0.071,3.618,0.345,5.285,1.303
		c1.826,1.049,3.187,2.594,4.014,4.368l3.67,5.58l19.664,30.989c2.987,4.541,1.727,10.649-2.815,13.636
		c-4.543,2.989-10.649,1.728-13.638-2.815L66.507,50.468z"/>
</g>
<g id="mask">
	
		<polyline style="opacity:0;fill:none;stroke:#FF0000;stroke-width:21;stroke-linecap:round;stroke-linejoin:round;stroke-miterlimit:10;" points="
		9,71 29.908,32.641 48.824,64.78 65.783,29 91,71 	"/>
</g>
</svg>
