<svg width="154" height="108" viewBox="0 0 154 108" fill="none" xmlns="http://www.w3.org/2000/svg">
<g filter="url(#filter0_d)">
<path d="M6 8C6 4.68629 8.68629 2 12 2H142C145.314 2 148 4.68629 148 8V92C148 95.3137 145.314 98 142 98H12C8.68629 98 6 95.3137 6 92V8Z" fill="#F2F2F2"/>
<path d="M6 8C6 4.68629 8.68629 2 12 2H142C145.314 2 148 4.68629 148 8V92C148 95.3137 145.314 98 142 98H12C8.68629 98 6 95.3137 6 92V8Z" fill="white"/>
</g>
<g filter="url(#filter1_d)">
<path fill-rule="evenodd" clip-rule="evenodd" d="M142 3H12C9.23858 3 7 5.23858 7 8V92C7 94.7614 9.23857 97 12 97H142C144.761 97 147 94.7614 147 92V8C147 5.23858 144.761 3 142 3ZM12 2C8.68629 2 6 4.68629 6 8V92C6 95.3137 8.68629 98 12 98H142C145.314 98 148 95.3137 148 92V8C148 4.68629 145.314 2 142 2H12Z" fill="#D4D9DB"/>
</g>
<path d="M76.5 54L140 5H13L76.5 54Z" fill="#D4D9DB"/>
<defs>
<filter id="filter0_d" x="0" y="0" width="154" height="108" filterUnits="userSpaceOnUse" color-interpolation-filters="sRGB">
<feFlood flood-opacity="0" result="BackgroundImageFix"/>
<feColorMatrix in="SourceAlpha" type="matrix" values="0 0 0 0 0 0 0 0 0 0 0 0 0 0 0 0 0 0 127 0"/>
<feOffset dy="4"/>
<feGaussianBlur stdDeviation="3"/>
<feColorMatrix type="matrix" values="0 0 0 0 0.4875 0 0 0 0 0.4875 0 0 0 0 0.4875 0 0 0 0.2 0"/>
<feBlend mode="normal" in2="BackgroundImageFix" result="effect1_dropShadow"/>
<feBlend mode="normal" in="SourceGraphic" in2="effect1_dropShadow" result="shape"/>
</filter>
<filter id="filter1_d" x="0" y="0" width="154" height="108" filterUnits="userSpaceOnUse" color-interpolation-filters="sRGB">
<feFlood flood-opacity="0" result="BackgroundImageFix"/>
<feColorMatrix in="SourceAlpha" type="matrix" values="0 0 0 0 0 0 0 0 0 0 0 0 0 0 0 0 0 0 127 0"/>
<feOffset dy="4"/>
<feGaussianBlur stdDeviation="3"/>
<feColorMatrix type="matrix" values="0 0 0 0 0.4875 0 0 0 0 0.4875 0 0 0 0 0.4875 0 0 0 0.2 0"/>
<feBlend mode="normal" in2="BackgroundImageFix" result="effect1_dropShadow"/>
<feBlend mode="normal" in="SourceGraphic" in2="effect1_dropShadow" result="shape"/>
</filter>
</defs>
</svg>
