<svg width="8" height="12" viewBox="0 0 8 12" fill="none" xmlns="http://www.w3.org/2000/svg">
<path fill-rule="evenodd" clip-rule="evenodd" d="M2.35272 5.40356H5.64691H6.58802V11.0506L3.99982 9.32516L1.41162 11.0506V5.40356H2.35272Z" fill="#EA5352"/>
<path fill-rule="evenodd" clip-rule="evenodd" d="M4 8.22705C6.20914 8.22705 8 6.43619 8 4.22705C8 2.01791 6.20914 0.227051 4 0.227051C1.79086 0.227051 0 2.01791 0 4.22705C0 6.43619 1.79086 8.22705 4 8.22705Z" fill="#FEF500"/>
<path fill-rule="evenodd" clip-rule="evenodd" d="M8 4.22705C8 2.01791 6.20914 0.227051 4 0.227051C1.79086 0.227051 0 2.01791 0 4.22705C0 6.43619 1.79086 8.22705 4 8.22705C6.20914 8.22705 8 6.43619 8 4.22705ZM0.941188 4.22702C0.941188 2.53768 2.31067 1.16819 4.00001 1.16819C5.68935 1.16819 7.05884 2.53768 7.05884 4.22702C7.05884 5.91636 5.68935 7.28584 4.00001 7.28584C2.31067 7.28584 0.941188 5.91636 0.941188 4.22702Z" fill="#FFD600"/>
<path fill-rule="evenodd" clip-rule="evenodd" d="M3.97756 5.18848L2.74601 5.82281L2.98122 4.47928L1.98487 3.52778L3.36179 3.33176L3.97756 2.10938L4.59334 3.33176L5.97025 3.52778L4.97391 4.47928L5.20911 5.82281L3.97756 5.18848Z" fill="#FFD600"/>
</svg>
