<svg width="49" height="49" viewBox="0 0 49 49" fill="none" xmlns="http://www.w3.org/2000/svg">
<path fill-rule="evenodd" clip-rule="evenodd" d="M24.5 44.5455C35.5708 44.5455 44.5455 35.5708 44.5455 24.5C44.5455 13.4292 35.5708 4.45455 24.5 4.45455C13.4292 4.45455 4.45455 13.4292 4.45455 24.5C4.45455 35.5708 13.4292 44.5455 24.5 44.5455ZM24.5 49C38.031 49 49 38.031 49 24.5C49 10.969 38.031 0 24.5 0C10.969 0 0 10.969 0 24.5C0 38.031 10.969 49 24.5 49Z" fill="#26A69A"/>
<circle cx="16.7046" cy="21.1591" r="3.34091" fill="#26A69A"/>
<circle cx="32.2955" cy="21.1591" r="3.34091" fill="#26A69A"/>
<path d="M31.1818 31.1818H17.8182C17.8182 31.1818 17.8182 37.8636 24.5 37.8636C31.1818 37.8636 31.1818 31.1818 31.1818 31.1818Z" fill="#26A69A"/>
</svg>
