<svg width="26" height="26" viewBox="0 0 26 26" fill="none" xmlns="http://www.w3.org/2000/svg">
<path fill-rule="evenodd" clip-rule="evenodd" d="M5.89474 3C4.8483 3 4 3.89543 4 5V21C4 22.1046 4.8483 23 5.89474 23H20.1053C21.1517 23 22 22.1046 22 21V5C22 3.89543 21.1517 3 20.1053 3H5.89474Z" fill="#26A69A"/>
<path d="M8 7H13V12H8V7Z" fill="#F2F2F2"/>
<path d="M8 7H13V12H8V7Z" fill="white"/>
<path d="M8 14H18V16H8V14Z" fill="#F2F2F2"/>
<path d="M8 14H18V16H8V14Z" fill="white"/>
<path d="M8 17H18V19H8V17Z" fill="#F2F2F2"/>
<path d="M8 17H18V19H8V17Z" fill="white"/>
</svg>
