<svg width="26" height="26" viewBox="0 0 26 26" fill="none" xmlns="http://www.w3.org/2000/svg">
<path fill-rule="evenodd" clip-rule="evenodd" d="M7.25595 18.2589L6.83156 21.2297L10.2383 20.2563L10.8005 20.4258C11.5223 20.6434 12.2898 20.761 13.0883 20.761C17.4578 20.761 21 17.2188 21 12.8493C21 8.47972 17.4578 4.9375 13.0883 4.9375C8.71873 4.9375 5.17651 8.47972 5.17651 12.8493C5.17651 14.633 5.76438 16.2736 6.75777 17.5958L7.25595 18.2589ZM4.4155 24L5.15876 18.7971C3.91408 17.1404 3.17651 15.081 3.17651 12.8493C3.17651 7.37515 7.61416 2.9375 13.0883 2.9375C18.5624 2.9375 23 7.37515 23 12.8493C23 18.3234 18.5624 22.761 13.0883 22.761C12.0921 22.761 11.1303 22.6141 10.2232 22.3407L4.4155 24Z" fill="#D8D8D8"/>
</svg>
