<svg width="26" height="26" viewBox="0 0 26 26" fill="none" xmlns="http://www.w3.org/2000/svg">
<path fill-rule="evenodd" clip-rule="evenodd" d="M15.1213 3.70729C13.9497 2.53572 12.0503 2.53572 10.8787 3.70729L5 9.58597L2.29289 12.2931C1.90237 12.6836 1.90237 13.3168 2.29289 13.7073C2.68342 14.0978 3.31658 14.0978 3.70711 13.7073L5 12.4144V19.0002C5 21.2093 6.79086 23.0002 9 23.0002H17C19.2091 23.0002 21 21.2093 21 19.0002V12.4144L22.2929 13.7073C22.6834 14.0978 23.3166 14.0978 23.7071 13.7073C24.0976 13.3168 24.0976 12.6836 23.7071 12.2931L21 9.58597L15.1213 3.70729ZM15 15.0002H11V19.0002H15V15.0002Z" fill="#26A69A"/>
</svg>
