<svg width="26" height="26" viewBox="0 0 26 26" fill="none" xmlns="http://www.w3.org/2000/svg">
<path fill-rule="evenodd" clip-rule="evenodd" d="M15.1213 3.70705C13.9497 2.53547 12.0503 2.53548 10.8787 3.70705L2.29289 12.2928C1.90237 12.6834 1.90237 13.3165 2.29289 13.707C2.68342 14.0976 3.31658 14.0976 3.70711 13.707L5 12.4142V18.9999C5 21.2091 6.79086 22.9999 9 22.9999H17C19.2091 22.9999 21 21.2091 21 18.9999V12.4142L22.2929 13.707C22.6834 14.0976 23.3166 14.0976 23.7071 13.707C24.0976 13.3165 24.0976 12.6834 23.7071 12.2928L15.1213 3.70705ZM19 10.4142L13.7071 5.12126C13.3166 4.73074 12.6834 4.73074 12.2929 5.12126L7 10.4142V18.9999C7 20.1045 7.89543 20.9999 9 20.9999H17C18.1046 20.9999 19 20.1045 19 18.9999V10.4142Z" fill="#D8D8D8"/>
<rect x="11" y="15" width="4" height="4" fill="#D8D8D8"/>
</svg>
