
<svg version="1.1" id="Layer_1" xmlns="http://www.w3.org/2000/svg" xmlns:xlink="http://www.w3.org/1999/xlink" x="0px" y="0px"
	 viewBox="0 0 21.2 21.2" style="enable-background:new 0 0 21.2 21.2;" xml:space="preserve">
<path class="st0" d="M10.6,21.2c5.8,0,10.6-4.7,10.6-10.6C21.2,4.7,16.4,0,10.6,0C4.7,0,0,4.7,0,10.6C0,16.4,4.7,21.2,10.6,21.2z
	 M7.2,10.6c0.8,0,1.4-0.6,1.4-1.4S8,7.7,7.2,7.7c-0.8,0-1.4,0.6-1.4,1.4S6.4,10.6,7.2,10.6z M15.4,9.1c0,0.8-0.6,1.4-1.4,1.4
	c-0.8,0-1.4-0.6-1.4-1.4s0.6-1.4,1.4-1.4C14.7,7.7,15.4,8.3,15.4,9.1z M10.6,16.3c-2.9,0-2.9-2.9-2.9-2.9h5.8
	C13.5,13.5,13.5,16.3,10.6,16.3z"/>
</svg>
