<svg width="26" height="26" viewBox="0 0 26 26" fill="none" xmlns="http://www.w3.org/2000/svg">
<path fill-rule="evenodd" clip-rule="evenodd" d="M13 22C17.9706 22 22 17.9706 22 13C22 8.02944 17.9706 4 13 4C8.02944 4 4 8.02944 4 13C4 17.9706 8.02944 22 13 22ZM13 24C19.0751 24 24 19.0751 24 13C24 6.92487 19.0751 2 13 2C6.92487 2 2 6.92487 2 13C2 19.0751 6.92487 24 13 24Z" fill="#D8D8D8"/>
<circle cx="9.5" cy="11.5" r="1.5" fill="#D8D8D8"/>
<circle cx="16.5" cy="11.5" r="1.5" fill="#D8D8D8"/>
<path d="M16 16H10C10 16 10 19 13 19C16 19 16 16 16 16Z" fill="#D8D8D8"/>
</svg>
