<svg width="25" height="25" viewBox="0 0 25 25" fill="none" xmlns="http://www.w3.org/2000/svg">
<path d="M21.8465 6.23798H10.6765L24.1723 2.28232C24.7939 2.0999 25.1056 1.44888 24.9678 0.827466C24.7861 0.207027 24.1811 -0.105634 23.5127 0.0321323L2.52864 6.18424C1.1082 6.60008 0.107498 7.88434 0.0175905 9.34896L0 9.3646V21.8271C0 23.5521 1.40187 24.9097 3.08323 24.9097H21.8025C23.5278 24.9097 24.8857 23.5081 24.8857 21.8271V9.3646C24.9737 7.64007 23.6153 6.23798 21.8465 6.23798ZM3.90901 12.1004C3.90901 11.8851 4.08462 11.7535 4.25593 11.7535H9.68456C9.89985 11.7535 10.0315 11.9291 10.0315 12.1004V12.8381C10.0315 13.0533 9.85588 13.1849 9.68456 13.1849H4.25593C4.04064 13.1849 3.90901 13.0094 3.90901 12.8381V12.1004ZM10.1634 19.0913C10.1634 19.3066 9.9878 19.4382 9.81649 19.4382H4.38786C4.17257 19.4382 4.04094 19.2626 4.04094 19.0913V18.3536C4.04094 18.1384 4.21655 18.0068 4.38786 18.0068H9.81649C10.0318 18.0068 10.1634 18.1823 10.1634 18.3536V19.0913ZM10.9452 15.9647C10.9452 16.1799 10.7696 16.3116 10.5983 16.3116H3.51811C3.30282 16.3116 3.17118 16.136 3.17118 15.9647V15.183C3.17118 14.9678 3.34679 14.8362 3.51811 14.8362H10.5103C10.7256 14.8362 10.8573 15.0118 10.8573 15.183V15.9647H10.9452ZM17.9375 19.4821C15.7797 19.4821 14.0284 17.7312 14.0284 15.6178C14.0284 13.5044 15.7797 11.7096 17.9375 11.7096C20.0952 11.7096 21.8025 13.461 21.8025 15.6178C21.8025 17.7747 20.1412 19.4821 17.9375 19.4821Z" fill="#26A69A"/>
</svg>
