<svg width="13" height="12" viewBox="0 0 13 12" fill="none" xmlns="http://www.w3.org/2000/svg">
<path d="M12.25 6C12.25 8.8441 9.7333 11.25 6.50001 11.25C5.54754 11.25 4.65257 11.0389 3.86554 10.6675C3.6334 10.558 3.41293 10.5757 3.29388 10.5941C3.16905 10.6134 3.04972 10.6514 2.96131 10.6816C2.85964 10.7164 2.78363 10.7448 2.70731 10.7733C2.60188 10.8127 2.49584 10.8523 2.32075 10.9092C2.15615 10.9627 1.96427 11.0184 1.74099 11.069C1.78805 10.9936 1.83109 10.9197 1.86998 10.8472C2.10224 10.4142 2.35276 9.70603 1.88129 9.12663C1.16664 8.24839 0.750027 7.16678 0.750027 6C0.750027 3.1559 3.26673 0.75 6.50001 0.75C9.7333 0.75 12.25 3.1559 12.25 6Z" stroke="#333333" stroke-width="1.5"/>
</svg>
