<svg width="40" height="40" viewBox="0 0 40 40" fill="none" xmlns="http://www.w3.org/2000/svg">
<circle cx="20" cy="20" r="18.5" fill="#26A69A" stroke="#989D9E"/>
<path d="M26.25 20C26.25 22.8441 23.7333 25.25 20.5 25.25C19.5475 25.25 18.6526 25.0389 17.8655 24.6675C17.6334 24.558 17.4129 24.5757 17.2939 24.5941C17.169 24.6134 17.0497 24.6514 16.9613 24.6816C16.8596 24.7164 16.7836 24.7448 16.7073 24.7733C16.6019 24.8127 16.4958 24.8523 16.3207 24.9092C16.1561 24.9627 15.9643 25.0184 15.741 25.069C15.788 24.9936 15.8311 24.9197 15.87 24.8472C16.1022 24.4142 16.3528 23.706 15.8813 23.1266C15.1666 22.2484 14.75 21.1668 14.75 20C14.75 17.1559 17.2667 14.75 20.5 14.75C23.7333 14.75 26.25 17.1559 26.25 20Z" fill="white"/>
<path d="M26.25 20C26.25 22.8441 23.7333 25.25 20.5 25.25C19.5475 25.25 18.6526 25.0389 17.8655 24.6675C17.6334 24.558 17.4129 24.5757 17.2939 24.5941C17.169 24.6134 17.0497 24.6514 16.9613 24.6816C16.8596 24.7164 16.7836 24.7448 16.7073 24.7733C16.6019 24.8127 16.4958 24.8523 16.3207 24.9092C16.1561 24.9627 15.9643 25.0184 15.741 25.069C15.788 24.9936 15.8311 24.9197 15.87 24.8472C16.1022 24.4142 16.3528 23.706 15.8813 23.1266C15.1666 22.2484 14.75 21.1668 14.75 20C14.75 17.1559 17.2667 14.75 20.5 14.75C23.7333 14.75 26.25 17.1559 26.25 20Z" stroke="#F2F2F2" stroke-width="1.5"/>
<path d="M26.25 20C26.25 22.8441 23.7333 25.25 20.5 25.25C19.5475 25.25 18.6526 25.0389 17.8655 24.6675C17.6334 24.558 17.4129 24.5757 17.2939 24.5941C17.169 24.6134 17.0497 24.6514 16.9613 24.6816C16.8596 24.7164 16.7836 24.7448 16.7073 24.7733C16.6019 24.8127 16.4958 24.8523 16.3207 24.9092C16.1561 24.9627 15.9643 25.0184 15.741 25.069C15.788 24.9936 15.8311 24.9197 15.87 24.8472C16.1022 24.4142 16.3528 23.706 15.8813 23.1266C15.1666 22.2484 14.75 21.1668 14.75 20C14.75 17.1559 17.2667 14.75 20.5 14.75C23.7333 14.75 26.25 17.1559 26.25 20Z" stroke="white" stroke-width="1.5"/>
</svg>
