<svg width="40" height="40" viewBox="0 0 40 40" fill="none" xmlns="http://www.w3.org/2000/svg">
<circle cx="20" cy="20" r="19" fill="#26A69A"/>
<path fill-rule="evenodd" clip-rule="evenodd" d="M19.1325 24.5773C19.1365 24.5797 19.1405 24.582 19.1446 24.5844L19.7348 24.9251C19.9132 25.0282 20.1102 25.0699 20.3015 25.057C20.6228 25.0353 20.9278 24.859 21.101 24.5591L21.4417 23.9689C21.4446 23.964 21.4474 23.959 21.4501 23.9541L26.1343 15.8409C26.4104 15.3626 26.2465 14.751 25.7682 14.4749L25.178 14.1341C24.6997 13.858 24.0881 14.0219 23.812 14.5002L19.6194 21.762L15.841 19.5806C15.3627 19.3044 14.7511 19.4683 14.4749 19.9466L14.1342 20.5368C13.858 21.0151 14.0219 21.6267 14.5002 21.9028L19.1325 24.5773Z" fill="#F2F2F2"/>
<path fill-rule="evenodd" clip-rule="evenodd" d="M19.1325 24.5773C19.1365 24.5797 19.1405 24.582 19.1446 24.5844L19.7348 24.9251C19.9132 25.0282 20.1102 25.0699 20.3015 25.057C20.6228 25.0353 20.9278 24.859 21.101 24.5591L21.4417 23.9689C21.4446 23.964 21.4474 23.959 21.4501 23.9541L26.1343 15.8409C26.4104 15.3626 26.2465 14.751 25.7682 14.4749L25.178 14.1341C24.6997 13.858 24.0881 14.0219 23.812 14.5002L19.6194 21.762L15.841 19.5806C15.3627 19.3044 14.7511 19.4683 14.4749 19.9466L14.1342 20.5368C13.858 21.0151 14.0219 21.6267 14.5002 21.9028L19.1325 24.5773Z" fill="white"/>
</svg>
