<svg width="60" height="60" viewBox="0 0 60 60" fill="none" xmlns="http://www.w3.org/2000/svg">
<path fill-rule="evenodd" clip-rule="evenodd" d="M29.9805 0C28.9803 0.00063721 27.9916 0.050215 27.0167 0.146468C21.5687 0.684317 16.5489 2.67957 12.3525 5.73698L18.2308 13.8277C21.5281 11.424 25.5886 10.0042 29.9805 10V0Z" fill="#D4D9DB"/>
<path fill-rule="evenodd" clip-rule="evenodd" d="M18.231 13.8277C14.8601 16.285 12.2867 19.7706 10.9721 23.8233L1.45898 20.7323C3.432 14.6519 7.29404 9.42263 12.3527 5.73694L18.231 13.8277Z" fill="#D4D9DB"/>
<path fill-rule="evenodd" clip-rule="evenodd" d="M10.9721 23.8229C10.341 25.7683 10 27.8443 10 29.9999C10 32.155 10.3409 34.2305 10.9716 36.1755L1.4585 39.2665C0.511682 36.3482 0 33.2338 0 29.9999C0 26.7655 0.51185 23.6507 1.45897 20.7319L10.9721 23.8229Z" fill="#D4D9DB"/>
<path fill-rule="evenodd" clip-rule="evenodd" d="M10.9721 36.1755C12.2866 40.2285 14.8599 43.7143 18.2308 46.1719L12.3525 54.2626C7.2938 50.5767 3.43181 45.3472 1.45898 39.2665L10.9721 36.1755Z" fill="#D4D9DB"/>
<path fill-rule="evenodd" clip-rule="evenodd" d="M18.2308 46.1719C21.5282 48.5758 25.5888 49.9957 29.9808 49.9999L29.9808 59.9994C25.7801 59.9994 21.651 59.1177 17.8512 57.4379C15.8999 56.5727 14.0582 55.5054 12.3525 54.2626L18.2308 46.1719Z" fill="#D4D9DB"/>
<path fill-rule="evenodd" clip-rule="evenodd" d="M41.744 46.1907C38.4462 48.5868 34.3881 50.0001 29.9999 50.0001C29.9934 50.0001 29.987 50.0001 29.9805 50.0001V59.9996C36.3158 59.9996 42.4886 57.994 47.614 54.2701L41.744 46.1907Z" fill="#D4D9DB"/>
<path fill-rule="evenodd" clip-rule="evenodd" d="M41.7432 46.1909C45.1237 43.7347 47.7052 40.2457 49.0242 36.1873L58.5109 39.2697C56.5531 45.295 52.7382 50.5458 47.6127 54.2697L41.7432 46.1909Z" fill="#26A69A"/>
<path fill-rule="evenodd" clip-rule="evenodd" d="M49.0249 36.1874C49.6581 34.2391 50.0003 32.1595 50.0003 30.0001C50.0003 27.8401 49.6579 25.76 49.0244 23.8113L58.5116 20.7288C60.4693 26.7541 60.4693 33.2445 58.5116 39.2698L49.0249 36.1874Z" fill="#26A69A"/>
<path fill-rule="evenodd" clip-rule="evenodd" d="M41.7432 13.8091L47.6137 5.729C52.7391 9.45284 56.5541 14.7037 58.5118 20.729L49.0239 23.8118C47.7048 19.7538 45.1234 16.2651 41.7432 13.8091Z" fill="#26A69A"/>
<path fill-rule="evenodd" clip-rule="evenodd" d="M30.3277 0.00175256C30.2186 0.000585174 30.1094 0 30 0C29.9935 0 29.987 2.07413e-06 29.9805 6.22178e-06V10C29.987 10 29.9935 10 30 10C34.388 10 38.446 11.4131 41.7436 13.8091L47.614 5.72924C42.5823 2.07345 36.5411 0.0736319 30.3277 0.00175256Z" fill="#26A69A"/>
</svg>
