<svg width="32" height="32" viewBox="0 0 32 32" fill="none" xmlns="http://www.w3.org/2000/svg">
<circle cx="16" cy="16" r="14" fill="#26A69A"/>
<path fill-rule="evenodd" clip-rule="evenodd" d="M15.3857 19.7812C15.388 19.7826 15.3903 19.784 15.3926 19.7853C15.5102 19.8532 15.6371 19.89 15.764 19.8983C16.0789 19.9189 16.3933 19.7639 16.5618 19.4721C16.5637 19.4687 16.5656 19.4654 16.5675 19.462L19.5571 14.2839C19.7934 13.8745 19.6532 13.3511 19.2439 13.1148C18.8345 12.8785 18.3111 13.0187 18.0748 13.4281L15.5073 17.875L13.2839 16.5913C12.8745 16.355 12.3511 16.4952 12.1148 16.9046C11.8785 17.3139 12.0187 17.8373 12.4281 18.0737L15.3857 19.7812Z" fill="#F2F2F2"/>
<path fill-rule="evenodd" clip-rule="evenodd" d="M15.3857 19.7812C15.388 19.7826 15.3903 19.784 15.3926 19.7853C15.5102 19.8532 15.6371 19.89 15.764 19.8983C16.0789 19.9189 16.3933 19.7639 16.5618 19.4721C16.5637 19.4687 16.5656 19.4654 16.5675 19.462L19.5571 14.2839C19.7934 13.8745 19.6532 13.3511 19.2439 13.1148C18.8345 12.8785 18.3111 13.0187 18.0748 13.4281L15.5073 17.875L13.2839 16.5913C12.8745 16.355 12.3511 16.4952 12.1148 16.9046C11.8785 17.3139 12.0187 17.8373 12.4281 18.0737L15.3857 19.7812Z" fill="white"/>
</svg>
