<svg width="24" height="24" viewBox="0 0 24 24" fill="none" xmlns="http://www.w3.org/2000/svg">
<path d="M14.0241 23.8754C13.3354 23.8801 12.6514 23.7618 12.0043 23.5261C11.3572 23.7618 10.6732 23.8801 9.98453 23.8754C8.69093 23.8759 7.43779 23.4246 6.44157 22.5994L6.42018 22.5756C5.4752 21.7959 4.78026 20.7555 4.42177 19.584C3.25166 19.2224 2.21213 18.528 1.4301 17.5856L1.40634 17.557C0.8452 16.8835 0.451648 16.0866 0.257933 15.2316C0.0642172 14.3766 0.0758524 13.4879 0.291884 12.6382C0.341949 12.4217 0.40463 12.2083 0.479607 11.999C0.402061 11.7898 0.336217 11.5764 0.282379 11.3598C0.066585 10.5091 0.0555066 9.61935 0.250053 8.76351C0.444599 7.90767 0.839229 7.11013 1.40158 6.43629L1.4301 6.41728C2.21213 5.47692 3.25073 4.78425 4.4194 4.42362C4.7777 3.25005 5.47355 2.20793 6.42018 1.4272L6.4487 1.40344C7.44255 0.578123 8.69268 0.12445 9.98453 0.120273C10.6736 0.11791 11.3576 0.238615 12.0043 0.476708C12.651 0.238615 13.335 0.11791 14.0241 0.120273C15.3175 0.120789 16.5704 0.572004 17.5671 1.39631L17.5885 1.4272C18.5336 2.2078 19.2285 3.24895 19.5869 4.42125C20.7569 4.78174 21.7965 5.47536 22.5785 6.41728L22.6023 6.4458C23.1624 7.119 23.5553 7.91511 23.749 8.76914C23.9426 9.62317 23.9316 10.5109 23.7168 11.3598C23.666 11.5762 23.6034 11.7896 23.529 11.999C23.6072 12.2081 23.6731 12.4215 23.7263 12.6382C23.9426 13.4889 23.954 14.3788 23.7594 15.2348C23.5649 16.0907 23.1699 16.8882 22.6071 17.5618L22.5785 17.5856C21.7952 18.5245 20.7571 19.2168 19.5892 19.5792C19.2298 20.7522 18.5342 21.7941 17.5885 22.5756L17.5599 22.5994C16.5654 23.4227 15.3152 23.8739 14.0241 23.8754Z" fill="url(#paint0_linear)"/>
<path d="M14.0234 22.6832C13.4777 22.6839 12.9361 22.5873 12.4242 22.398L12.0131 22.2459L11.6021 22.398C11.0842 22.5896 10.536 22.6862 9.98384 22.6832C8.96482 22.6864 7.97688 22.3324 7.19178 21.6828L7.16089 21.6566C6.40014 21.0279 5.84145 20.1891 5.55455 19.2448L5.37158 18.6269L4.75614 18.4416C3.80868 18.1455 2.96699 17.5819 2.33239 16.8186L2.31575 16.7972C1.87436 16.2652 1.5654 15.6362 1.41422 14.9616C1.26304 14.2871 1.27395 13.5864 1.44606 12.9169C1.48861 12.7437 1.54097 12.5732 1.60289 12.406L1.75496 11.9949L1.60289 11.5814C1.5413 11.4149 1.48894 11.2452 1.44606 11.0729C1.27317 10.4035 1.26187 9.70252 1.41308 9.02786C1.56429 8.35319 1.87368 7.72413 2.31575 7.19252L2.33952 7.16163C2.97292 6.40236 3.81206 5.8421 4.75614 5.54817L5.37158 5.36282L5.55455 4.74976C5.84478 3.79825 6.41035 2.95402 7.17989 2.32363L7.21079 2.29749C7.99194 1.65475 8.97226 1.30362 9.98384 1.30422C10.5295 1.30471 11.0708 1.40123 11.583 1.58937L11.9941 1.74383L12.4052 1.58937C12.9234 1.39902 13.4714 1.30247 14.0234 1.30422C15.039 1.30441 16.0228 1.65811 16.806 2.30462L16.825 2.32125C17.5955 2.95225 18.1619 3.79727 18.4527 4.74976L18.6357 5.3652L19.2511 5.55055C20.1993 5.84512 21.0414 6.40899 21.6749 7.17351L21.701 7.2044C22.1396 7.73599 22.4462 8.36382 22.5957 9.03659C22.7452 9.70936 22.7334 10.408 22.5612 11.0753C22.5183 11.2475 22.466 11.4173 22.4044 11.5838L22.2523 11.9973L22.4044 12.4083C22.4663 12.5755 22.5187 12.7461 22.5612 12.9192C22.7334 13.5882 22.7446 14.2884 22.5939 14.9625C22.4431 15.6366 22.1347 16.2654 21.6939 16.7972L21.6773 16.8163C21.0419 17.5803 20.1995 18.1447 19.2511 18.4416L18.6357 18.6246L18.4527 19.2448C18.1609 20.1949 17.5956 21.0379 16.8274 21.6685L16.7965 21.6947C16.0148 22.3358 15.0345 22.6853 14.0234 22.6832Z" fill="#26A69A"/>
<path d="M14.0223 21.7396C13.5886 21.7359 13.159 21.6555 12.7534 21.5019L12.0025 21.2382L11.2612 21.5138C10.8555 21.6674 10.4259 21.7478 9.99225 21.7515C9.19563 21.7547 8.42302 21.479 7.80849 20.972L7.7776 20.9459C7.15711 20.4372 6.7001 19.757 6.46355 18.9903L6.13563 17.8806L5.0283 17.5503C4.25656 17.3069 3.57163 16.8456 3.05603 16.222L3.04177 16.203C2.69643 15.7834 2.45613 15.2875 2.34083 14.7564C2.22553 14.2254 2.23855 13.6745 2.37881 13.1495C2.41135 13.0116 2.45262 12.8759 2.50237 12.7432L2.77801 12.0018L2.50237 11.258C2.45262 11.1253 2.41135 10.9896 2.37881 10.8517C2.24086 10.3279 2.22924 9.77877 2.34491 9.24958C2.46058 8.7204 2.70023 8.22623 3.04415 7.80773L3.06791 7.77922C3.58131 7.16168 4.262 6.70541 5.0283 6.46516L6.13563 6.13249L6.46355 5.02279C6.70372 4.25024 7.16663 3.56579 7.79423 3.05527L7.82512 3.02913C8.43386 2.53135 9.19639 2.26009 9.98274 2.26161C10.4165 2.26413 10.8463 2.34462 11.2516 2.49924L11.993 2.7725L12.7344 2.49686C13.1462 2.34191 13.5824 2.26223 14.0223 2.26161C14.8192 2.25922 15.5918 2.5358 16.2061 3.04339L16.2203 3.05527C16.8483 3.56643 17.3113 4.25175 17.551 5.02517L17.879 6.13249L18.9863 6.46516C19.7585 6.70753 20.4437 7.16899 20.9586 7.79348L20.9847 7.82199C21.326 8.2391 21.5639 8.73093 21.6791 9.25741C21.7943 9.7839 21.7836 10.3302 21.6477 10.8517C21.6129 10.99 21.5708 11.1265 21.5217 11.2604L21.2485 11.9994L21.5217 12.7408C21.5712 12.8754 21.6132 13.0126 21.6477 13.1519C21.7821 13.6774 21.79 14.2273 21.6706 14.7565C21.5512 15.2857 21.308 15.7789 20.9609 16.1958L20.9467 16.2148C20.4302 16.8354 19.7465 17.2947 18.9768 17.5384L17.8695 17.8687L17.5415 18.9784C17.3014 19.7516 16.8385 20.4368 16.2108 20.9483L16.1823 20.972C15.5731 21.4705 14.8095 21.7418 14.0223 21.7396Z" fill="url(#paint1_linear)"/>
<g style="mix-blend-mode:multiply">
<g style="mix-blend-mode:multiply">
<path d="M14.0223 21.7396C13.5886 21.7359 13.159 21.6555 12.7534 21.5019L12.0025 21.2382L11.2612 21.5138C10.8555 21.6674 10.4259 21.7478 9.99225 21.7515C9.19563 21.7547 8.42302 21.479 7.80849 20.972L7.7776 20.9459C7.15711 20.4372 6.7001 19.757 6.46355 18.9903L6.13563 17.8806L5.0283 17.5503C4.25656 17.3069 3.57163 16.8456 3.05603 16.222L3.04177 16.203C2.69643 15.7834 2.45613 15.2875 2.34083 14.7564C2.22553 14.2254 2.23855 13.6745 2.37881 13.1495C2.41135 13.0116 2.45262 12.8759 2.50237 12.7432L2.77801 12.0018L2.50237 11.258C2.45262 11.1253 2.41135 10.9896 2.37881 10.8517C2.24086 10.3279 2.22924 9.77877 2.34491 9.24958C2.46058 8.7204 2.70023 8.22623 3.04415 7.80773L3.06791 7.77922C3.58131 7.16168 4.262 6.70541 5.0283 6.46516L6.13563 6.13249L6.46355 5.02279C6.70372 4.25024 7.16663 3.56579 7.79423 3.05527L7.82512 3.02913C8.43386 2.53135 9.19639 2.26009 9.98274 2.26161C10.4165 2.26413 10.8463 2.34462 11.2516 2.49924L11.993 2.7725L12.7344 2.49686C13.1462 2.34191 13.5824 2.26223 14.0223 2.26161C14.8192 2.25922 15.5918 2.5358 16.2061 3.04339L16.2203 3.05527C16.8483 3.56643 17.3113 4.25175 17.551 5.02517L17.879 6.13249L18.9863 6.46516C19.7585 6.70753 20.4437 7.16899 20.9586 7.79348L20.9847 7.82199C21.326 8.2391 21.5639 8.73093 21.6791 9.25741C21.7943 9.7839 21.7836 10.3302 21.6477 10.8517C21.6129 10.99 21.5708 11.1265 21.5217 11.2604L21.2485 11.9994L21.5217 12.7408C21.5712 12.8754 21.6132 13.0126 21.6477 13.1519C21.7821 13.6774 21.79 14.2273 21.6706 14.7565C21.5512 15.2857 21.308 15.7789 20.9609 16.1958L20.9467 16.2148C20.4302 16.8354 19.7465 17.2947 18.9768 17.5384L17.8695 17.8687L17.5415 18.9784C17.3014 19.7516 16.8385 20.4368 16.2108 20.9483L16.1823 20.972C15.5731 21.4705 14.8095 21.7418 14.0223 21.7396Z" fill="white"/>
</g>
<g style="mix-blend-mode:multiply">
<g style="mix-blend-mode:multiply" opacity="0.43">
<g style="mix-blend-mode:multiply" opacity="0.43">
<path d="M14.0223 21.7396C13.5886 21.7359 13.159 21.6555 12.7534 21.5019L12.0025 21.2382L11.2612 21.5138C10.8555 21.6674 10.4259 21.7478 9.99225 21.7515C9.19563 21.7547 8.42302 21.479 7.80849 20.972L7.7776 20.9459C7.15711 20.4372 6.7001 19.757 6.46355 18.9903L6.13563 17.8806L5.0283 17.5503C4.25656 17.3069 3.57163 16.8456 3.05603 16.222L3.04177 16.203C2.69643 15.7834 2.45613 15.2875 2.34083 14.7564C2.22553 14.2254 2.23855 13.6745 2.37881 13.1495C2.41135 13.0116 2.45262 12.8759 2.50237 12.7432L2.77801 12.0018L2.50237 11.258C2.45262 11.1253 2.41135 10.9896 2.37881 10.8517C2.24086 10.3279 2.22924 9.77877 2.34491 9.24958C2.46058 8.7204 2.70023 8.22623 3.04415 7.80773L3.06791 7.77922C3.58131 7.16168 4.262 6.70541 5.0283 6.46516L6.13563 6.13249L6.46355 5.02279C6.70372 4.25024 7.16663 3.56579 7.79423 3.05527L7.82512 3.02913C8.43386 2.53135 9.19639 2.26009 9.98274 2.26161C10.4165 2.26413 10.8463 2.34462 11.2516 2.49924L11.993 2.7725L12.7344 2.49686C13.1462 2.34191 13.5824 2.26223 14.0223 2.26161C14.8192 2.25922 15.5918 2.5358 16.2061 3.04339L16.2203 3.05527C16.8483 3.56643 17.3113 4.25175 17.551 5.02517L17.879 6.13249L18.9863 6.46516C19.7585 6.70753 20.4437 7.16899 20.9586 7.79348L20.9847 7.82199C21.326 8.2391 21.5639 8.73093 21.6791 9.25741C21.7943 9.7839 21.7836 10.3302 21.6477 10.8517C21.6129 10.99 21.5708 11.1265 21.5217 11.2604L21.2485 11.9994L21.5217 12.7408C21.5712 12.8754 21.6132 13.0126 21.6477 13.1519C21.7821 13.6774 21.79 14.2273 21.6706 14.7565C21.5512 15.2857 21.308 15.7789 20.9609 16.1958L20.9467 16.2148C20.4302 16.8354 19.7465 17.2947 18.9768 17.5384L17.8695 17.8687L17.5415 18.9784C17.3014 19.7516 16.8385 20.4368 16.2108 20.9483L16.1823 20.972C15.5731 21.4705 14.8095 21.7418 14.0223 21.7396Z" fill="#57B800"/>
</g>
</g>
</g>
</g>
<g style="mix-blend-mode:multiply" opacity="0.5">
<g style="mix-blend-mode:multiply" opacity="0.5">
<path d="M10.1662 20.1501C9.70035 20.1533 9.24837 19.9917 8.89016 19.6938C8.61593 19.4791 8.38878 19.2104 8.22282 18.9042C8.05685 18.598 7.95562 18.261 7.92541 17.914C7.90637 17.2124 8.09215 16.5205 8.46006 15.9227C7.86235 16.2906 7.17039 16.4764 6.46878 16.4574C6.12365 16.4287 5.78806 16.3296 5.48276 16.1661C5.17745 16.0026 4.90892 15.7783 4.69374 15.5069C4.48914 15.2585 4.34665 14.9649 4.27806 14.6504C4.20947 14.3359 4.21674 14.0097 4.29928 13.6986C4.43207 13.185 4.72404 12.7267 5.13334 12.3893C4.72436 12.0506 4.43252 11.5916 4.29928 11.0776C4.21629 10.7669 4.20835 10.4409 4.2761 10.1265C4.34386 9.81206 4.48537 9.51826 4.68898 9.2693C4.90444 8.9959 5.17341 8.76933 5.47943 8.60345C5.78545 8.43757 6.1221 8.33586 6.46878 8.30455C7.17021 8.28701 7.86175 8.47268 8.46006 8.8392C8.0919 8.24159 7.90609 7.54956 7.92541 6.84792C7.95408 6.50279 8.05323 6.1672 8.21671 5.8619C8.38019 5.55659 8.60454 5.28805 8.8759 5.07287C9.12554 4.86611 9.42098 4.72201 9.73759 4.65257C10.0542 4.58313 10.3828 4.59036 10.6961 4.67367C11.2093 4.80736 11.6673 5.09916 12.0054 5.50772C12.3429 5.10072 12.7989 4.80915 13.3099 4.67367C13.6202 4.59179 13.9454 4.58464 14.2589 4.6528C14.5724 4.72095 14.8653 4.86247 15.1135 5.06574C15.387 5.28055 15.6137 5.54904 15.7796 5.85471C15.9456 6.16038 16.0472 6.49676 16.0783 6.84316C16.0953 7.5456 15.9088 8.23797 15.5412 8.83682C16.1395 8.46802 16.8323 8.28141 17.5349 8.29979C17.8797 8.3297 18.2149 8.42938 18.52 8.59277C18.8251 8.75616 19.0939 8.97986 19.3099 9.25029C19.5133 9.4994 19.6551 9.79301 19.7236 10.1072C19.7922 10.4214 19.7856 10.7474 19.7044 11.0586C19.5703 11.5722 19.2786 12.0309 18.8703 12.3703C19.2789 12.7083 19.5707 13.1664 19.7044 13.6796C19.7857 13.9898 19.7925 14.3149 19.7244 14.6283C19.6563 14.9417 19.5151 15.2346 19.3123 15.4831C19.0983 15.7575 18.83 15.9848 18.5242 16.1508C18.2183 16.3168 17.8816 16.4179 17.5349 16.4479C16.835 16.4692 16.1441 16.2867 15.546 15.9227C15.9135 16.5207 16.1 17.2123 16.083 17.914C16.0522 18.2599 15.9509 18.5958 15.7854 18.9011C15.6199 19.2063 15.3937 19.4745 15.1206 19.6891C14.8721 19.8944 14.5781 20.0373 14.2631 20.1059C13.9482 20.1745 13.6214 20.1669 13.3099 20.0835C12.7976 19.9494 12.3405 19.6576 12.003 19.2495C11.6662 19.6583 11.2088 19.9503 10.6961 20.0835C10.5229 20.1278 10.3449 20.1501 10.1662 20.1501ZM12.003 13.3089C11.7654 13.5917 11.5278 13.8934 11.2426 14.2071C10.2565 15.3453 9.03273 16.7497 9.10877 17.8237C9.13054 18.011 9.19022 18.1918 9.28419 18.3552C9.37815 18.5187 9.50443 18.6612 9.6553 18.7742C9.76089 18.8563 9.8843 18.9124 10.0156 18.938C10.1468 18.9636 10.2823 18.9579 10.4109 18.9215C10.8434 18.8146 11.2236 18.4463 11.4565 17.8808L12.003 16.5643L12.5519 17.8808C12.6344 18.123 12.7717 18.3429 12.953 18.5234C13.1343 18.7039 13.3549 18.8402 13.5975 18.9215C13.7273 18.9577 13.8637 18.9628 13.9958 18.9363C14.1279 18.9099 14.252 18.8527 14.3579 18.7695C14.5083 18.6567 14.6339 18.5141 14.7267 18.3505C14.8196 18.1869 14.8776 18.006 14.8973 17.819C14.9781 16.7425 13.7519 15.3382 12.7587 14.2095C12.4925 13.9029 12.2288 13.6012 12.003 13.3089ZM12.9535 12.3703C13.2363 12.596 13.5381 12.8455 13.8517 13.1307C14.9804 14.1168 16.3848 15.3406 17.4636 15.2693C17.6509 15.2478 17.8319 15.1882 17.9953 15.0942C18.1588 15.0002 18.3013 14.8738 18.4141 14.7227C18.4972 14.6177 18.5539 14.4943 18.5796 14.3628C18.6052 14.2314 18.599 14.0957 18.5614 13.9671C18.4569 13.5346 18.0862 13.1544 17.5206 12.9216L16.2042 12.375L17.5206 11.8261C18.0767 11.5885 18.4569 11.2131 18.5614 10.7806C18.5987 10.6511 18.6045 10.5145 18.5785 10.3823C18.5524 10.2501 18.4953 10.1259 18.4117 10.0202C18.2987 9.86991 18.156 9.74448 17.9925 9.65169C17.829 9.55889 17.6482 9.50072 17.4612 9.48078C16.3895 9.39999 14.9781 10.6261 13.8494 11.6194C13.5262 11.8831 13.2244 12.154 12.9416 12.3798L12.9535 12.3703ZM6.6565 9.48078H6.55432C6.36708 9.50157 6.1861 9.5606 6.0226 9.6542C5.8591 9.74781 5.71657 9.87399 5.60383 10.0249C5.52193 10.1306 5.46594 10.254 5.44036 10.3852C5.41477 10.5165 5.4203 10.6519 5.45651 10.7806C5.53788 11.0232 5.67413 11.2437 5.85465 11.425C6.03516 11.6064 6.25508 11.7436 6.49729 11.8261L7.81373 12.375L6.49729 12.9216C5.94363 13.1592 5.56344 13.5346 5.45651 13.9671C5.41998 14.0969 5.41472 14.2334 5.44115 14.3656C5.46759 14.4978 5.52496 14.6218 5.60858 14.7275C5.72174 14.8778 5.86442 15.0034 6.02787 15.0966C6.19132 15.1897 6.37209 15.2485 6.55908 15.2693C7.63313 15.3453 9.03986 14.1216 10.1709 13.1307C10.4822 12.8574 10.784 12.596 11.0668 12.3703C10.784 12.1327 10.4822 11.8808 10.1709 11.6075C9.07313 10.6618 7.72105 9.48078 6.6565 9.48078ZM10.1686 5.79762C9.97921 5.79439 9.79483 5.85838 9.64818 5.97822C9.49807 6.09157 9.37263 6.2343 9.27948 6.39771C9.18634 6.56113 9.12745 6.7418 9.1064 6.92871C9.02798 8.00514 10.2541 9.41187 11.245 10.5406C11.5183 10.8542 11.7797 11.1536 12.0054 11.4364C12.243 11.1536 12.4949 10.8542 12.7682 10.5406C13.7543 9.41187 14.9804 8.00514 14.9068 6.92871C14.8857 6.74154 14.8266 6.56066 14.733 6.39719C14.6394 6.23373 14.5134 6.09115 14.3626 5.97822C14.257 5.89621 14.1335 5.84034 14.0022 5.81515C13.8709 5.78996 13.7354 5.79616 13.607 5.83327C13.1745 5.93782 12.7919 6.30851 12.5614 6.87406L12.003 8.18336L11.4565 6.8693C11.2189 6.31327 10.8434 5.93307 10.4109 5.82851C10.3326 5.80788 10.2519 5.7975 10.1709 5.79762H10.1686Z" fill="#57B800"/>
</g>
</g>
<path d="M10.1667 19.7712C9.70085 19.7744 9.24887 19.6128 8.89066 19.3149C8.61643 19.1002 8.38928 18.8315 8.22332 18.5253C8.05735 18.2191 7.95612 17.8821 7.92591 17.5351C7.90686 16.8335 8.09265 16.1416 8.46056 15.5439C7.86284 15.9118 7.17089 16.0976 6.46928 16.0785C6.12415 16.0498 5.78856 15.9507 5.48326 15.7872C5.17795 15.6237 4.90942 15.3994 4.69424 15.128C4.48815 14.8785 4.3448 14.5833 4.27617 14.267C4.20755 13.9508 4.21564 13.6227 4.29978 13.3102C4.43257 12.7966 4.72454 12.3383 5.13384 12.0009C4.72611 11.6641 4.43438 11.2078 4.29978 10.6964C4.21759 10.3863 4.21005 10.0612 4.27779 9.74772C4.34553 9.43421 4.48662 9.14123 4.68948 8.8928C4.90494 8.6194 5.17391 8.39283 5.47993 8.22695C5.78595 8.06107 6.1226 7.95936 6.46928 7.92805C7.17071 7.91051 7.86225 8.09618 8.46056 8.4627C8.0924 7.86509 7.90659 7.17306 7.92591 6.47142C7.95458 6.12629 8.05372 5.7907 8.21721 5.4854C8.38069 5.18009 8.60504 4.91156 8.8764 4.69638C9.12582 4.48921 9.42116 4.34467 9.73779 4.27482C10.0544 4.20496 10.3831 4.21181 10.6966 4.29479C11.2098 4.42848 11.6678 4.72029 12.0059 5.12885C12.3433 4.72184 12.7994 4.43028 13.3104 4.29479C13.6207 4.21292 13.9459 4.20577 14.2594 4.27392C14.5729 4.34208 14.8658 4.4836 15.114 4.68687C15.3875 4.90168 15.6142 5.17017 15.7801 5.47584C15.946 5.78151 16.0477 6.11789 16.0787 6.46429C16.0958 7.16673 15.9093 7.8591 15.5417 8.45795C16.14 8.08914 16.8328 7.90254 17.5354 7.92092C17.8802 7.95083 18.2154 8.0505 18.5205 8.21389C18.8256 8.37728 19.0944 8.60098 19.3104 8.87141C19.5172 9.12196 19.6613 9.41822 19.7308 9.73559C19.8002 10.053 19.7929 10.3823 19.7096 10.6964C19.5755 11.21 19.2838 11.6687 18.8756 12.008C19.2829 12.3442 19.5746 12.7996 19.7096 13.3102C19.7909 13.6205 19.7978 13.9455 19.7296 14.259C19.6615 14.5724 19.5203 14.8653 19.3175 15.1138C19.1035 15.3881 18.8352 15.6154 18.5294 15.7814C18.2236 15.9474 17.8868 16.0485 17.5401 16.0785C16.8377 16.0979 16.1449 15.9121 15.5465 15.5439C15.9139 16.1419 16.1005 16.8335 16.0835 17.5351C16.0527 17.881 15.9514 18.2169 15.7859 18.5222C15.6204 18.8274 15.3942 19.0956 15.1211 19.3102C14.8726 19.5155 14.5786 19.6584 14.2636 19.727C13.9487 19.7956 13.6218 19.788 13.3104 19.7046C12.7981 19.5705 12.341 19.2787 12.0035 18.8706C11.6667 19.2795 11.2093 19.5714 10.6966 19.7046C10.5234 19.7489 10.3454 19.7712 10.1667 19.7712ZM12.0035 12.9395C11.7659 13.2223 11.5283 13.5241 11.2431 13.8377C10.257 14.9736 9.03323 16.3708 9.10927 17.4472C9.13103 17.6345 9.19072 17.8153 9.28468 17.9787C9.37865 18.1421 9.50492 18.2847 9.6558 18.3977C9.76139 18.4798 9.8848 18.5359 10.0161 18.5615C10.1473 18.5871 10.2828 18.5814 10.4114 18.545C10.8439 18.4381 11.2241 18.0698 11.457 17.5042L12.0035 16.1878L12.5524 17.5042C12.6349 17.7465 12.7722 17.9664 12.9535 18.1469C13.1348 18.3274 13.3554 18.4637 13.598 18.545C13.7277 18.5812 13.8642 18.5862 13.9963 18.5598C14.1284 18.5334 14.2525 18.4762 14.3584 18.393C14.5088 18.2802 14.6344 18.1375 14.7272 17.974C14.82 17.8104 14.8781 17.6295 14.8978 17.4425C14.9786 16.366 13.7524 14.9617 12.7592 13.833C12.493 13.5241 12.2293 13.2223 12.0035 12.9395ZM12.954 12.0009C13.2368 12.2266 13.5386 12.4761 13.8522 12.7613C14.9809 13.7474 16.3853 14.9712 17.4641 14.8999C17.6514 14.8784 17.8324 14.8188 17.9958 14.7248C18.1593 14.6309 18.3018 14.5044 18.4146 14.3534C18.4977 14.2483 18.5544 14.1249 18.5801 13.9934C18.6057 13.862 18.5995 13.7263 18.5619 13.5977C18.4574 13.1653 18.0867 12.7851 17.5211 12.5522L16.2047 12.0057L17.5211 11.4567C18.0772 11.2191 18.4574 10.8437 18.5619 10.4112C18.5992 10.2817 18.605 10.1451 18.579 10.0129C18.5529 9.88068 18.4958 9.75655 18.4122 9.65081C18.2992 9.50054 18.1565 9.37511 17.993 9.28231C17.8295 9.18952 17.6487 9.13135 17.4617 9.11141C16.39 9.03062 14.9786 10.2568 13.8498 11.25C13.5267 11.5114 13.2249 11.7752 12.9421 12.0009H12.954ZM6.657 9.1019H6.55482C6.36758 9.1227 6.1866 9.18172 6.0231 9.27533C5.8596 9.36893 5.71706 9.49511 5.60433 9.64606C5.52243 9.75174 5.46644 9.87514 5.44086 10.0064C5.41527 10.1376 5.4208 10.273 5.45701 10.4017C5.53838 10.6443 5.67463 10.8648 5.85515 11.0462C6.03566 11.2275 6.25558 11.3648 6.49779 11.4472L7.81422 11.9961L6.49779 12.5427C5.94413 12.7803 5.56394 13.1557 5.45701 13.5882C5.42048 13.718 5.41522 13.8545 5.44165 13.9867C5.46808 14.1189 5.52546 14.2429 5.60908 14.3486C5.72224 14.4989 5.86492 14.6245 6.02837 14.7177C6.19182 14.8108 6.37259 14.8696 6.55958 14.8904C7.63363 14.9664 9.04036 13.7427 10.1714 12.7518C10.4827 12.4785 10.7845 12.2171 11.0673 11.9914C10.7845 11.7538 10.4827 11.5019 10.1714 11.2286C9.07363 10.2829 7.72155 9.1019 6.657 9.1019ZM10.1691 5.41875C9.9797 5.41552 9.79532 5.4795 9.64867 5.59934C9.49857 5.7127 9.37312 5.85543 9.27998 6.01884C9.18683 6.18225 9.12794 6.36292 9.10689 6.54983C9.02848 7.62627 10.2546 9.03299 11.2455 10.1617C11.5188 10.4754 11.7801 10.7748 12.0059 11.0575C12.2435 10.7748 12.4954 10.4754 12.7687 10.1617C13.7548 9.03299 14.9809 7.62627 14.9073 6.54983C14.8862 6.36266 14.8271 6.18178 14.7335 6.01832C14.6399 5.85486 14.5139 5.71228 14.3631 5.59934C14.2575 5.51734 14.134 5.46146 14.0027 5.43627C13.8713 5.41108 13.7359 5.41729 13.6075 5.45439C13.175 5.55895 12.7924 5.92964 12.5619 6.49518L12.0035 7.80448L11.457 6.49043C11.2194 5.93439 10.8439 5.5542 10.4114 5.44964C10.3331 5.42901 10.2524 5.41862 10.1714 5.41875H10.1691Z" fill="white"/>
<path d="M17.7416 11.9933C19.2339 11.3707 19.4881 10.0044 18.8608 9.263C16.8576 6.90578 13.847 10.6887 12.1646 11.8365C13.3099 10.1493 17.0953 7.13865 14.7357 5.13549C13.9919 4.51054 12.6256 4.76242 12.003 6.25469C11.3828 4.76242 10.0165 4.51054 9.27034 5.13549C6.91312 7.13865 10.6961 10.1493 11.8438 11.8317C10.159 10.6887 7.15074 6.90103 5.14521 9.263C4.52501 10.0091 4.77451 11.3755 6.26441 11.998C4.77451 12.6135 4.51788 13.9798 5.14521 14.7283C7.15074 17.0855 10.159 13.3026 11.8438 12.1549C10.6961 13.8372 6.91312 16.8455 9.27034 18.8511C10.0165 19.4713 11.3828 19.2218 12.003 17.7319C12.6256 19.2218 13.9919 19.4808 14.7357 18.8511C17.0929 16.8455 13.3099 13.8372 12.1622 12.1525C13.847 13.3026 16.8576 17.0832 18.8608 14.7283C19.4881 13.9798 19.2339 12.6135 17.7416 11.9933Z" fill="#66C300"/>
<path d="M10.1692 19.4092C9.78606 19.4123 9.41414 19.2802 9.11886 19.0361C8.88207 18.8517 8.68551 18.6208 8.54126 18.3577C8.39701 18.0945 8.30812 17.8046 8.28005 17.5058C8.1945 16.3438 9.08321 15.0963 10.0028 13.9985C8.905 14.9181 7.6551 15.8068 6.4955 15.7213C6.19699 15.6931 5.90735 15.6044 5.64425 15.4606C5.38115 15.3168 5.15011 15.1209 4.96521 14.8848C4.7977 14.6791 4.68131 14.4366 4.62555 14.1772C4.5698 13.9179 4.57626 13.649 4.64442 13.3926C4.72597 13.0993 4.86475 12.8251 5.05276 12.5857C5.24077 12.3463 5.47428 12.1465 5.73986 11.9977C5.47453 11.8487 5.2412 11.6487 5.05323 11.4094C4.86525 11.17 4.72633 10.896 4.64442 10.6029C4.57606 10.3465 4.5695 10.0776 4.62527 9.81814C4.68103 9.55873 4.79753 9.31625 4.96521 9.1106C5.14933 8.87374 5.38019 8.67726 5.64344 8.53337C5.90669 8.38948 6.19671 8.30126 6.4955 8.27417C7.65985 8.18625 8.905 9.07496 10.0028 9.99694C9.08084 8.89912 8.1945 7.6516 8.28005 6.48725C8.30814 6.18905 8.39681 5.89972 8.54064 5.637C8.68446 5.37427 8.88041 5.14367 9.11648 4.95933C9.32222 4.79183 9.5647 4.67544 9.82408 4.61968C10.0835 4.56392 10.3524 4.57038 10.6088 4.63854C10.9021 4.71998 11.1764 4.85871 11.4158 5.04673C11.6552 5.23475 11.855 5.46833 12.0036 5.73398C12.1522 5.46833 12.352 5.23475 12.5914 5.04673C12.8309 4.85871 13.1051 4.71998 13.3984 4.63854C13.6547 4.57045 13.9234 4.56379 14.1827 4.61912C14.442 4.67445 14.6846 4.7902 14.8907 4.95695C15.127 5.14166 15.323 5.37266 15.4668 5.6358C15.6107 5.89894 15.6992 6.18867 15.7272 6.48725C15.8151 7.6516 14.9264 8.89912 14.0044 9.99694C15.1022 9.07496 16.3497 8.18625 17.5141 8.27417C17.8125 8.30129 18.1022 8.38955 18.365 8.53345C18.6279 8.67735 18.8583 8.87381 19.042 9.1106C19.2097 9.31625 19.3262 9.55873 19.3819 9.81814C19.4377 10.0776 19.4311 10.3465 19.3628 10.6029C19.2809 10.896 19.1419 11.17 18.954 11.4094C18.766 11.6487 18.5327 11.8487 18.2673 11.9977C18.5329 12.1465 18.7664 12.3463 18.9544 12.5857C19.1424 12.8251 19.2812 13.0993 19.3628 13.3926C19.4309 13.6484 19.4375 13.9168 19.3822 14.1757C19.3268 14.4346 19.2111 14.6768 19.0444 14.8825C18.8598 15.119 18.6289 15.3155 18.3657 15.4597C18.1026 15.6039 17.8128 15.6929 17.5141 15.7213C16.3497 15.8068 15.1022 14.9181 14.0044 13.9985C14.9264 15.0963 15.8151 16.3438 15.7272 17.5058C15.6995 17.8045 15.611 18.0943 15.4672 18.3575C15.3234 18.6206 15.1272 18.8516 14.8907 19.0361C14.6851 19.2038 14.4426 19.3203 14.1832 19.3761C13.9238 19.4318 13.6548 19.4253 13.3984 19.3569C13.1053 19.275 12.8313 19.1361 12.5919 18.9481C12.3526 18.7601 12.1527 18.5268 12.0036 18.2615C11.8545 18.5268 11.6546 18.7601 11.4153 18.9481C11.1759 19.1361 10.9019 19.275 10.6088 19.3569C10.4648 19.3917 10.3172 19.4092 10.1692 19.4092ZM12.0036 12.3423C11.7446 12.7153 11.3691 13.1454 10.9747 13.5993C9.94341 14.7874 8.665 16.2464 8.75529 17.4702C8.77721 17.7062 8.84813 17.935 8.96351 18.142C9.07889 18.3491 9.23621 18.5298 9.42539 18.6725C9.57297 18.7922 9.7471 18.8747 9.93315 18.9132C10.1192 18.9516 10.3118 18.9449 10.4947 18.8935C11.0484 18.7581 11.5046 18.3161 11.785 17.6436L12.0036 17.109L12.2246 17.6341C12.5026 18.3066 12.9612 18.7486 13.5125 18.884C13.6963 18.9342 13.8893 18.9404 14.076 18.902C14.2626 18.8636 14.4375 18.7817 14.5866 18.663C14.7743 18.519 14.9304 18.338 15.0452 18.1312C15.1601 17.9243 15.2312 17.6961 15.2543 17.4607C15.3446 16.2369 14.0662 14.7684 13.0349 13.5898C12.6701 13.1918 12.3259 12.7754 12.0036 12.3423ZM12.36 11.9977C12.7331 12.2567 13.1608 12.6322 13.6147 13.0266C14.8028 14.0555 16.2523 15.3363 17.4879 15.246C17.7239 15.2238 17.9526 15.1528 18.1596 15.0374C18.3666 14.9221 18.5473 14.7649 18.6903 14.5759C18.8093 14.4275 18.8914 14.253 18.9298 14.0667C18.9682 13.8804 18.9619 13.6876 18.9113 13.5043C18.7759 12.953 18.3315 12.4967 17.6614 12.2163L17.1339 11.9977L17.6614 11.7767C18.3315 11.4987 18.7759 11.0401 18.9113 10.4888C18.9619 10.3049 18.9681 10.1116 18.9293 9.92483C18.8904 9.73807 18.8077 9.56323 18.6879 9.41476C18.5457 9.22851 18.367 9.07323 18.1627 8.95842C17.9584 8.8436 17.7329 8.77168 17.4998 8.74704C16.2737 8.65912 14.8076 9.93515 13.6266 10.9664C13.2224 11.3317 12.7996 11.6759 12.36 11.9977ZM6.65708 8.74229H6.53352C6.29777 8.7652 6.06929 8.83654 5.86239 8.95184C5.6555 9.06715 5.47464 9.22394 5.33115 9.41238C5.21216 9.5608 5.13009 9.73533 5.09168 9.92163C5.05326 10.1079 5.05959 10.3007 5.11016 10.4841C5.24323 11.0353 5.68758 11.494 6.36005 11.772L6.8852 11.993L6.36005 12.2116C5.68758 12.492 5.2456 12.9482 5.11016 13.4995C5.05958 13.6833 5.05324 13.8764 5.09166 14.0631C5.13007 14.2498 5.21213 14.4247 5.33115 14.5736C5.47436 14.7621 5.65519 14.9188 5.86218 15.0337C6.06916 15.1487 6.29778 15.2194 6.53352 15.2413C7.75965 15.3316 9.22579 14.0532 10.4044 13.0219C10.8583 12.6274 11.2884 12.252 11.659 11.993C11.2884 11.734 10.8583 11.3585 10.4044 10.9617C9.27094 9.9803 7.8452 8.74229 6.65708 8.74229ZM10.1739 5.05913C9.90104 5.05566 9.6358 5.14913 9.42539 5.32289C9.23693 5.46564 9.08023 5.64605 8.96527 5.85264C8.85032 6.05923 8.77962 6.28749 8.75767 6.52289C8.665 7.74902 9.94579 9.21516 10.9771 10.3961C11.3402 10.7943 11.6828 11.2107 12.0036 11.6437C12.3251 11.2077 12.6694 10.7889 13.0349 10.389C14.0638 9.2009 15.3446 7.7419 15.2543 6.51576C15.2311 6.28008 15.1596 6.05171 15.0444 5.84485C14.9291 5.63799 14.7724 5.45708 14.5842 5.31339C14.4357 5.19458 14.2612 5.11262 14.0749 5.07421C13.8886 5.0358 13.6959 5.04203 13.5125 5.0924C12.9612 5.22784 12.5026 5.6722 12.2246 6.3423L12.0036 6.86982L11.785 6.3423C11.5046 5.6722 11.0484 5.22784 10.4947 5.0924C10.3886 5.0688 10.2802 5.05764 10.1715 5.05913H10.1739Z" fill="#C7E8A0"/>
<path d="M12.0027 12.093C11.133 10.4772 6.77504 7.24788 9.27008 5.13541C10.0162 4.51284 11.3825 4.76234 12.0027 6.25462V12.093Z" fill="#57B800"/>
<path d="M12.0029 12.0931C12.8726 10.4773 17.2306 7.24796 14.738 5.13549C13.9918 4.51054 12.6255 4.76242 12.0029 6.2547V12.0931Z" fill="#8DD03E"/>
<path d="M12.0027 11.895C11.133 13.5109 6.77504 16.7425 9.27008 18.8526C10.0162 19.4752 11.3825 19.2257 12.0027 17.7358V11.895Z" fill="#8DD03E"/>
<path d="M12.0029 11.895C12.8726 13.5109 17.2306 16.7425 14.738 18.8526C13.9918 19.4752 12.6255 19.2257 12.0029 17.7358V11.895Z" fill="#57B800"/>
<path d="M11.9033 11.9943C13.5191 11.1246 16.7484 6.7666 18.8609 9.25926C19.4811 10.0054 19.234 11.3717 17.7417 11.9943H11.9033Z" fill="#57B800"/>
<path d="M11.9033 11.9965C13.5191 12.8662 16.7484 17.2242 18.8609 14.7291C19.4811 13.983 19.234 12.6167 17.7417 11.9965H11.9033Z" fill="#8DD03E"/>
<path d="M12.1049 11.9943C10.4891 11.1246 7.25744 6.7666 5.14497 9.25926C4.52477 10.0054 4.77428 11.3717 6.26417 11.9943H12.1049Z" fill="#8DD03E"/>
<path d="M12.1049 11.9965C10.4891 12.8662 7.25744 17.2242 5.14497 14.7291C4.52477 13.983 4.77428 12.6167 6.26417 11.9965H12.1049Z" fill="#57B800"/>
<path style="mix-blend-mode:multiply" opacity="0.5" d="M17.7416 11.9933C19.2339 11.3707 19.4881 10.0044 18.8608 9.263C16.8576 6.90578 13.847 10.6887 12.1646 11.8365C13.3099 10.1493 17.0953 7.13865 14.7357 5.13549C13.9919 4.51054 12.6256 4.76242 12.003 6.25469C11.3828 4.76242 10.0165 4.51054 9.27034 5.13549C6.91312 7.13865 10.6961 10.1493 11.8438 11.8317C10.159 10.6887 7.15074 6.90103 5.14521 9.263C4.52501 10.0091 4.77451 11.3755 6.26441 11.998C4.77451 12.6135 4.51788 13.9798 5.14521 14.7283C7.15074 17.0855 10.159 13.3026 11.8438 12.1549C10.6961 13.8372 6.91312 16.8455 9.27034 18.8511C10.0165 19.4713 11.3828 19.2218 12.003 17.7319C12.6256 19.2218 13.9919 19.4808 14.7357 18.8511C17.0929 16.8455 13.3099 13.8372 12.1622 12.1525C13.847 13.3026 16.8576 17.0832 18.8608 14.7283C19.4881 13.9798 19.2339 12.6135 17.7416 11.9933Z" fill="url(#paint2_linear)"/>
<defs>
<linearGradient id="paint0_linear" x1="3.90375" y1="3.8961" x2="20.1049" y2="20.0996" gradientUnits="userSpaceOnUse">
<stop offset="0.01" stop-color="#E4EAF4"/>
<stop offset="0.23" stop-color="#D7DFEE"/>
<stop offset="0.4" stop-color="#DEE5F1"/>
<stop offset="0.49" stop-color="#E4EAF4"/>
<stop offset="0.64" stop-color="#D7E0EF"/>
<stop offset="0.73" stop-color="#CDD7EA"/>
<stop offset="0.77" stop-color="#C6D2E7"/>
<stop offset="0.86" stop-color="#BECBE3"/>
<stop offset="1" stop-color="#BBC9E2"/>
</linearGradient>
<linearGradient id="paint1_linear" x1="12.0025" y1="21.7396" x2="12.0025" y2="2.26161" gradientUnits="userSpaceOnUse">
<stop stop-color="#57B800"/>
<stop offset="1" stop-color="#C7E8A0"/>
</linearGradient>
<linearGradient id="paint2_linear" x1="12.003" y1="19.1671" x2="12.003" y2="4.81708" gradientUnits="userSpaceOnUse">
<stop stop-color="#C7E8A0"/>
<stop offset="0.13" stop-color="#C3E59A"/>
<stop offset="0.29" stop-color="#B7DC89"/>
<stop offset="0.48" stop-color="#A3CD6D"/>
<stop offset="0.69" stop-color="#88B846"/>
<stop offset="0.92" stop-color="#659E14"/>
<stop offset="1" stop-color="#579300"/>
</linearGradient>
</defs>
</svg>
