<svg width="20" height="20" viewBox="0 0 20 20" fill="none" xmlns="http://www.w3.org/2000/svg">
<path d="M3.9782 2.0164C2.07728 3.45021 0.750337 5.51524 0.236051 7.84007C-0.278235 10.1649 0.0538845 12.5969 1.17267 14.6988C2.29146 16.8006 4.12349 18.4342 6.33924 19.3059C8.555 20.1775 11.0091 20.2299 13.26 19.4537C15.511 18.6775 17.4111 17.1236 18.6186 15.0714C19.8261 13.0193 20.2618 10.6037 19.8473 8.25901C19.4327 5.91435 18.1952 3.79453 16.3573 2.28085C14.5193 0.767164 12.2016 -0.0410396 9.8209 0.00160391L9.89254 4.00096C11.3209 3.97538 12.7116 4.4603 13.8144 5.36851C14.9171 6.27672 15.6596 7.54861 15.9084 8.95541C16.1571 10.3622 15.8957 11.8116 15.1712 13.0429C14.4467 14.2741 13.3066 15.2065 11.956 15.6722C10.6054 16.1379 9.133 16.1065 7.80355 15.5835C6.47409 15.0605 5.37488 14.0803 4.7036 12.8193C4.03233 11.5582 3.83306 10.0989 4.14163 8.70404C4.4502 7.30915 5.24637 6.07013 6.38692 5.20984L3.9782 2.0164Z" fill="url(#paint0_linear)"/>
<defs>
<linearGradient id="paint0_linear" x1="10" y1="3" x2="10" y2="29.5" gradientUnits="userSpaceOnUse">
<stop stop-color="#F7A285"/>
<stop offset="1" stop-color="#A93912" stop-opacity="0"/>
</linearGradient>
</defs>
</svg>
