<svg width="60" height="60" viewBox="0 0 60 60" fill="none" xmlns="http://www.w3.org/2000/svg">
<path d="M60 30C60 46.5685 46.5685 60 30 60C13.4315 60 0 46.5685 0 30C0 13.4315 13.4315 0 30 0C46.5685 0 60 13.4315 60 30Z" fill="#F2F2F2"/>
<path d="M60 30C60 46.5685 46.5685 60 30 60C13.4315 60 0 46.5685 0 30C0 13.4315 13.4315 0 30 0C46.5685 0 60 13.4315 60 30Z" fill="white"/>
<path fill-rule="evenodd" clip-rule="evenodd" d="M30 57C44.9117 57 57 44.9117 57 30C57 15.0883 44.9117 3 30 3C15.0883 3 3 15.0883 3 30C3 44.9117 15.0883 57 30 57ZM30 60C46.5685 60 60 46.5685 60 30C60 13.4315 46.5685 0 30 0C13.4315 0 0 13.4315 0 30C0 46.5685 13.4315 60 30 60Z" fill="url(#paint0_linear)"/>
<path d="M22 20.7285C22 19.9595 22.8318 19.4783 23.4985 19.8616L28.4954 22.7349C29.4262 23.2701 30 24.2619 30 25.3356V42L23.2852 35.7949C22.4659 35.0377 22 33.9728 22 32.8572V20.7285Z" fill="#8AC7C1"/>
<path d="M39 20.7285C39 19.9595 38.1682 19.4783 37.5015 19.8616L32.5046 22.7349C31.5738 23.2701 31 24.2619 31 25.3356V42L37.7148 35.7949C38.5341 35.0377 39 33.9728 39 32.8572V20.7285Z" fill="#26A69A"/>
<defs>
<linearGradient id="paint0_linear" x1="30" y1="66.5" x2="30" y2="-7" gradientUnits="userSpaceOnUse">
<stop stop-color="#26A69A"/>
<stop offset="1" stop-color="#AEC5C2"/>
</linearGradient>
</defs>
</svg>
