<svg width="60" height="60" viewBox="0 0 60 60" fill="none" xmlns="http://www.w3.org/2000/svg">
<path d="M60 30C60 46.5685 46.5685 60 30 60C13.4315 60 0 46.5685 0 30C0 13.4315 13.4315 0 30 0C46.5685 0 60 13.4315 60 30Z" fill="#F2F2F2"/>
<path d="M60 30C60 46.5685 46.5685 60 30 60C13.4315 60 0 46.5685 0 30C0 13.4315 13.4315 0 30 0C46.5685 0 60 13.4315 60 30Z" fill="white"/>
<path fill-rule="evenodd" clip-rule="evenodd" d="M30 57C44.9117 57 57 44.9117 57 30C57 15.0883 44.9117 3 30 3C15.0883 3 3 15.0883 3 30C3 44.9117 15.0883 57 30 57ZM30 60C46.5685 60 60 46.5685 60 30C60 13.4315 46.5685 0 30 0C13.4315 0 0 13.4315 0 30C0 46.5685 13.4315 60 30 60Z" fill="black"/>
<path fill-rule="evenodd" clip-rule="evenodd" d="M30 57C44.9117 57 57 44.9117 57 30C57 15.0883 44.9117 3 30 3C15.0883 3 3 15.0883 3 30C3 44.9117 15.0883 57 30 57ZM30 60C46.5685 60 60 46.5685 60 30C60 13.4315 46.5685 0 30 0C13.4315 0 0 13.4315 0 30C0 46.5685 13.4315 60 30 60Z" fill="url(#paint0_linear)"/>
<path d="M32.8509 22.6512C34.0807 22.6512 35.087 21.6047 35.087 20.3256C35.087 19.0465 34.0807 18 32.8509 18C31.6211 18 30.6149 19.0465 30.6149 20.3256C30.6149 21.6047 31.6211 22.6512 32.8509 22.6512ZM28.8261 38.814L29.9441 33.6977L32.2919 36.0233V43H34.5279V34.2791L32.1801 31.9535L32.8509 28.4651C34.3043 30.2093 36.5404 31.3721 39 31.3721V29.0465C36.8758 29.0465 35.087 27.8837 34.1925 26.2558L33.0745 24.3953C32.6273 23.6977 31.9565 23.2326 31.1739 23.2326C30.8385 23.2326 30.6149 23.3488 30.2795 23.3488L24.4658 25.907V31.3721H26.7019V27.4186L28.7143 26.6047L26.9255 36.0233L21.4472 34.8605L21 37.186L28.8261 38.814Z" fill="#3E4958"/>
<defs>
<linearGradient id="paint0_linear" x1="30" y1="-7" x2="30" y2="72" gradientUnits="userSpaceOnUse">
<stop stop-color="#DBDBDB"/>
<stop offset="1" stop-color="#919191"/>
</linearGradient>
</defs>
</svg>
