<svg width="60" height="60" viewBox="0 0 60 60" fill="none" xmlns="http://www.w3.org/2000/svg">
<path d="M60 30C60 46.5685 46.5685 60 30 60C13.4315 60 0 46.5685 0 30C0 13.4315 13.4315 0 30 0C46.5685 0 60 13.4315 60 30Z" fill="#F2F2F2"/>
<path d="M60 30C60 46.5685 46.5685 60 30 60C13.4315 60 0 46.5685 0 30C0 13.4315 13.4315 0 30 0C46.5685 0 60 13.4315 60 30Z" fill="white"/>
<path fill-rule="evenodd" clip-rule="evenodd" d="M30 57C44.9117 57 57 44.9117 57 30C57 15.0883 44.9117 3 30 3C15.0883 3 3 15.0883 3 30C3 44.9117 15.0883 57 30 57ZM30 60C46.5685 60 60 46.5685 60 30C60 13.4315 46.5685 0 30 0C13.4315 0 0 13.4315 0 30C0 46.5685 13.4315 60 30 60Z" fill="black"/>
<path fill-rule="evenodd" clip-rule="evenodd" d="M30 57C44.9117 57 57 44.9117 57 30C57 15.0883 44.9117 3 30 3C15.0883 3 3 15.0883 3 30C3 44.9117 15.0883 57 30 57ZM30 60C46.5685 60 60 46.5685 60 30C60 13.4315 46.5685 0 30 0C13.4315 0 0 13.4315 0 30C0 46.5685 13.4315 60 30 60Z" fill="url(#paint0_linear)"/>
<path fill-rule="evenodd" clip-rule="evenodd" d="M21 36C24.3137 36 27 33.3137 27 30C27 26.6863 24.3137 24 21 24C17.6863 24 15 26.6863 15 30C15 33.3137 17.6863 36 21 36ZM21 23C24.5265 23 27.4439 25.6077 27.9291 29H33.0709C33.5561 25.6077 36.4735 23 40 23C43.5265 23 46.4439 25.6077 46.9291 29H49C49 27.8954 49.8954 27 51 27V29C51 30.1046 50.1046 31 49 31H46.9291C46.4439 34.3923 43.5265 37 40 37C36.4735 37 33.5561 34.3923 33.0709 31H27.9291C27.4439 34.3923 24.5265 37 21 37C17.4735 37 14.5561 34.3923 14.0709 31H12C10.8954 31 10 30.1046 10 29V27C11.1046 27 12 27.8954 12 29H14.0709C14.5561 25.6077 17.4735 23 21 23ZM46 30C46 26.6863 43.3137 24 40 24C36.6863 24 34 26.6863 34 30C34 33.3137 36.6863 36 40 36C43.3137 36 46 33.3137 46 30Z" fill="#E7AF01"/>
<path d="M46 30C46 33.3137 43.3137 36 40 36C36.6863 36 34 33.3137 34 30C34 26.6863 36.6863 24 40 24C43.3137 24 46 26.6863 46 30Z" fill="#404040"/>
<path d="M27 30C27 33.3137 24.3137 36 21 36C17.6863 36 15 33.3137 15 30C15 26.6863 17.6863 24 21 24C24.3137 24 27 26.6863 27 30Z" fill="url(#paint1_linear)"/>
<path d="M27 30C27 33.3137 24.3137 36 21 36C17.6863 36 15 33.3137 15 30C15 26.6863 17.6863 24 21 24C24.3137 24 27 26.6863 27 30Z" fill="#404040"/>
<defs>
<linearGradient id="paint0_linear" x1="30" y1="-7" x2="30" y2="72" gradientUnits="userSpaceOnUse">
<stop stop-color="#FDE404"/>
<stop offset="1" stop-color="#E1A200"/>
</linearGradient>
<linearGradient id="paint1_linear" x1="24" y1="37.8" x2="18" y2="22.2" gradientUnits="userSpaceOnUse">
<stop stop-color="#C7DBDE"/>
<stop offset="0.927751" stop-color="white" stop-opacity="0"/>
</linearGradient>
</defs>
</svg>
