<?xml version="1.0" encoding="utf-8"?>
<!-- Generator: Adobe Illustrator 16.0.0, SVG Export Plug-In . SVG Version: 6.00 Build 0)  -->
<!DOCTYPE svg PUBLIC "-//W3C//DTD SVG 1.1//EN" "http://www.w3.org/Graphics/SVG/1.1/DTD/svg11.dtd">
<svg version="1.1" id="Layer_1" xmlns="http://www.w3.org/2000/svg" xmlns:xlink="http://www.w3.org/1999/xlink" x="0px" y="0px"
	 width="300px" height="300px" viewBox="0 0 300 300" enable-background="new 0 0 300 300" xml:space="preserve">
<g>
	<path fill="rgba(0, 0, 0, 0.87)" d="M98.585,138.214c32.733-0.008,59.252-26.527,59.26-59.26c-0.008-32.733-26.527-59.253-59.26-59.261
		c-32.733,0.008-59.252,26.527-59.26,59.261C39.333,111.687,65.853,138.207,98.585,138.214z M74.324,54.692
		c6.25-6.226,14.75-10.039,24.261-10.047c9.511,0.008,18.011,3.822,24.262,10.047c6.226,6.25,10.039,14.75,10.047,24.262
		c-0.008,9.511-3.822,18.011-10.047,24.261c-6.25,6.226-14.75,10.039-24.262,10.047c-9.511-0.008-18.011-3.822-24.261-10.047
		c-6.226-6.25-10.039-14.75-10.047-24.261C64.285,69.442,68.099,60.942,74.324,54.692z"/>
	<path fill="rgba(0, 0, 0, 0.87)" d="M216.035,141.488c28.614-0.008,51.787-23.181,51.796-51.788c-0.009-28.607-23.182-51.784-51.796-51.792
		c-28.6,0.012-51.78,23.181-51.789,51.792C164.255,118.311,187.436,141.479,216.035,141.488z M197.061,70.722
		c4.898-4.877,11.534-7.858,18.975-7.862c14.822,0.028,26.819,12.025,26.844,26.84c-0.024,14.815-12.021,26.808-26.844,26.836
		c-7.449-0.008-14.076-2.985-18.975-7.862c-4.873-4.894-7.854-11.526-7.862-18.974C189.207,82.251,192.188,75.62,197.061,70.722z"/>
	<path fill="rgba(0, 0, 0, 0.87)" d="M297.762,192.35v-0.008c-1.064-10.632-6.019-20.33-13.881-26.723c-7.822-6.449-17.935-9.486-28.526-9.471h-79.794
		c-7.602-0.008-14.92,1.616-21.361,4.89c-2.884-0.431-5.832-0.649-8.829-0.642H50.412c-12.167-0.016-23.62,3.46-32.441,10.722
		c-8.849,7.213-14.441,18.104-15.664,30.239c-0.357,3.347-0.532,6.701-0.532,10.039c0.028,16.936,4.496,33.578,14.368,46.761
		c4.935,6.563,11.298,12.191,18.954,16.099c7.643,3.923,16.517,6.059,26.061,6.051h73.467c9.543,0.008,18.414-2.128,26.056-6.051
		c6.742-3.444,12.313-8.285,16.96-13.841c2.266,0.292,4.581,0.479,6.944,0.479h61.746c8.31,0.008,16.099-1.852,22.808-5.304
		c10.112-5.166,17.52-13.654,22.19-23.23c4.702-9.616,6.888-20.403,6.896-31.368C298.225,198.125,298.07,195.233,297.762,192.35z
		 M159.715,243.139c-1.999,2.648-4.33,4.703-6.831,6.506c-1.162,0.837-2.283,1.738-3.566,2.396
		c-4.053,2.063-8.772,3.306-14.693,3.313H61.158c-5.921-0.008-10.644-1.25-14.693-3.313c-6.027-3.087-10.827-8.252-14.324-15.352
		c-3.476-7.058-5.426-15.943-5.414-25.293c0-2.453,0.13-4.93,0.394-7.407c0.768-6.587,3.147-10.6,6.709-13.604
		c3.594-2.957,8.996-5.02,16.582-5.036h84.106h10.852c6.173,0.017,10.835,1.421,14.312,3.524c0.796,0.479,1.601,0.959,2.267,1.512
		c3.565,3.005,5.945,7.018,6.717,13.604c0.26,2.478,0.39,4.954,0.39,7.407c0.017,6.003-0.828,11.77-2.322,17.024
		C165.115,234.082,162.752,239.15,159.715,243.139z M265.824,226.472c-2.298,3.038-4.946,5.313-8.057,6.904
		c-3.111,1.584-6.75,2.559-11.437,2.566h-55.882c2.323-7.862,3.55-16.139,3.558-24.546c0-3.338-0.179-6.692-0.536-10.039
		c-0.747-7.448-3.313-14.304-7.107-20.257h68.991c6.011,0.017,10.063,1.633,12.663,3.776c2.575,2.193,4.321,5.02,4.938,10.112
		v-0.008c0.211,2.015,0.316,4.028,0.316,6.011C273.306,211.137,270.414,220.453,265.824,226.472z"/>
</g>
</svg>
